<?xml version="1.0" encoding="utf-8"?>
<!-- Generator: Adobe Illustrator 24.0.0, SVG Export Plug-In . SVG Version: 6.00 Build 0)  -->
<svg version="1.1" id="SVG" xmlns="http://www.w3.org/2000/svg" xmlns:xlink="http://www.w3.org/1999/xlink" x="0px" y="0px"
	 viewBox="0 0 265.7 279.5" style="enable-background:new 0 0 265.7 279.5;" xml:space="preserve">
<style type="text/css">
	.st0{fill:none;stroke:#000000;stroke-width:0.4781;stroke-miterlimit:1.9125;}
	.st1{fill:#FFFFFF;stroke:#000000;stroke-width:0.9563;stroke-miterlimit:1.9125;}
	.st2{fill:#FFFFFF;}
	.st3{fill:#A14F9D;}
	.st4{fill:#6BAB30;}
	.st5{fill:#CC0814;}
	.st6{fill:#3D85C6;}
	.st7{font-family:'ArialMT';}
	.st8{font-size:4px;}
	.st9{fill:#FFFFFF;stroke:#000000;stroke-width:0.2988;stroke-miterlimit:1.1953;}
	.st10{fill:#A14F9D;stroke:#000000;stroke-width:0.2988;stroke-miterlimit:1.1953;}
	.st11{font-size:3.5859px;}
	.st12{fill:#CC0814;stroke:#000000;stroke-width:0.2988;stroke-miterlimit:1.1953;}
	.st13{fill:#3D85C6;stroke:#000000;stroke-width:0.2988;stroke-miterlimit:1.1953;}
	.st14{fill:#6BAB30;stroke:#000000;stroke-width:0.2988;stroke-miterlimit:1.1953;}
</style>
<g transform="translate(0,1)scale(1)">
	<line class="st0" x1="174.3" y1="54.1" x2="158.2" y2="56">
	<title>C G</title>
	</line>
	<line class="st0" x1="142.5" y1="58.9" x2="137.9" y2="38.5">
	<title>C G</title>
	</line>
	<line class="st0" x1="253" y1="154" x2="236.6" y2="156.3">
	<title>C A</title>
	</line>
	<line class="st0" x1="38.5" y1="52.8" x2="52.2" y2="55.3">
	<title>C G</title>
	</line>
	<line class="st0" x1="142.5" y1="58.9" x2="129.6" y2="88.5">
	<title>A C</title>
	</line>
	<line class="st0" x1="70.2" y1="182.4" x2="62.2" y2="199.6">
	<title>A C</title>
	</line>
	<line class="st0" x1="198.3" y1="99.3" x2="218.5" y2="93.8">
	<title>C A</title>
	</line>
	<line class="st0" x1="210.4" y1="200.5" x2="194" y2="196.3">
	<title>T C</title>
	</line>
	<line class="st0" x1="169.5" y1="126.3" x2="174.6" y2="105.3">
	<title>A C</title>
	</line>
	<line class="st0" x1="194" y1="196.3" x2="191.9" y2="173.4">
	<title>C A</title>
	</line>
	<line class="st0" x1="169.5" y1="126.3" x2="192.7" y2="150.2">
	<title>G C</title>
	</line>
	<line class="st0" x1="94.1" y1="46.8" x2="107" y2="62.5">
	<title>G C</title>
	</line>
	<line class="st0" x1="73.5" y1="245.8" x2="70.5" y2="232.9">
	<title>A G</title>
	</line>
	<line class="st0" x1="190" y1="16.8" x2="173.6" y2="26.5">
	<title>C G</title>
	</line>
	<line class="st0" x1="210.4" y1="200.5" x2="201.1" y2="219.3">
	<title>A C</title>
	</line>
	<line class="st0" x1="192.7" y1="150.2" x2="191.9" y2="173.4">
	<title>C A</title>
	</line>
	<line class="st0" x1="234.3" y1="89.3" x2="218.5" y2="93.8">
	<title>C G</title>
	</line>
	<line class="st0" x1="104.6" y1="91.3" x2="119.6" y2="80.5">
	<title>A C</title>
	</line>
	<line class="st0" x1="210.4" y1="200.5" x2="219.9" y2="181.1">
	<title>C A</title>
	</line>
	<line class="st0" x1="189.7" y1="229.5" x2="180" y2="246.6">
	<title>G A</title>
	</line>
	<line class="st0" x1="134.8" y1="6.9" x2="135.4" y2="22.1">
	<title>A G</title>
	</line>
	<line class="st0" x1="53.7" y1="69.7" x2="65.6" y2="80.3">
	<title>A G</title>
	</line>
	<line class="st0" x1="56.2" y1="139.9" x2="67.5" y2="124.5">
	<title>G A</title>
	</line>
	<line class="st0" x1="104.6" y1="91.3" x2="129.6" y2="88.5">
	<title>C A</title>
	</line>
	<line class="st0" x1="140" y1="116.7" x2="118.2" y2="136">
	<title>G A</title>
	</line>
	<line class="st0" x1="189.7" y1="229.5" x2="200.2" y2="211">
	<title>C A</title>
	</line>
	<line class="st0" x1="67.5" y1="124.5" x2="85" y2="107.9">
	<title>G A</title>
	</line>
	<line class="st0" x1="185.5" y1="213.8" x2="194" y2="196.3">
	<title>C A</title>
	</line>
	<line class="st0" x1="78.7" y1="164.1" x2="97.2" y2="152.9">
	<title>G A</title>
	</line>
	<line class="st0" x1="156.3" y1="270.3" x2="169.6" y2="260.1">
	<title>A C</title>
	</line>
	<line class="st0" x1="65.6" y1="80.3" x2="83.7" y2="86.3">
	<title>G C</title>
	</line>
	<line class="st0" x1="56.2" y1="139.9" x2="65.3" y2="153.6">
	<title>A C</title>
	</line>
	<line class="st0" x1="63.3" y1="42.3" x2="80" y2="37.8">
	<title>G A</title>
	</line>
	<line class="st0" x1="185.5" y1="213.8" x2="201.1" y2="219.3">
	<title>C T</title>
	</line>
	<line class="st0" x1="61.6" y1="225.2" x2="58.1" y2="213.3">
	<title>G C</title>
	</line>
	<line class="st0" x1="198.3" y1="99.3" x2="174.6" y2="105.3">
	<title>A T</title>
	</line>
	<line class="st0" x1="15" y1="148.7" x2="28.7" y2="147.8">
	<title>G A</title>
	</line>
	<line class="st0" x1="216.4" y1="220.5" x2="200.2" y2="211">
	<title>C G</title>
	</line>
	<line class="st0" x1="107" y1="62.5" x2="119.6" y2="80.5">
	<title>G C</title>
	</line>
	<line class="st0" x1="97.2" y1="152.9" x2="118.2" y2="136">
	<title>G A</title>
	</line>
	<line class="st0" x1="28.7" y1="147.8" x2="41.2" y2="143.5">
	<title>A C</title>
	</line>
	<line class="st0" x1="80" y1="37.8" x2="94.1" y2="46.8">
	<title>A G</title>
	</line>
	<line class="st0" x1="173.6" y1="26.5" x2="157.2" y2="40.9">
	<title>C A</title>
	</line>
	<line class="st0" x1="137.3" y1="132.6" x2="140" y2="116.7">
	<title>A G</title>
	</line>
	<line class="st0" x1="217.4" y1="160.1" x2="219.9" y2="181.1">
	<title>C A</title>
	</line>
	<line class="st0" x1="148.7" y1="92.1" x2="174.6" y2="105.3">
	<title>G C</title>
	</line>
	<line class="st0" x1="70.5" y1="232.9" x2="61.6" y2="225.2">
	<title>C A</title>
	</line>
	<line class="st0" x1="142.5" y1="58.9" x2="157.2" y2="40.9">
	<title>G C</title>
	</line>
	<line class="st0" x1="104.6" y1="91.3" x2="83.7" y2="86.3">
	<title>G C</title>
	</line>
	<line class="st0" x1="41.2" y1="143.5" x2="56.2" y2="139.9">
	<title>A G</title>
	</line>
	<line class="st0" x1="140" y1="116.7" x2="129.6" y2="88.5">
	<title>C A</title>
	</line>
	<line class="st0" x1="135.4" y1="22.1" x2="137.9" y2="38.5">
	<title>C A</title>
	</line>
	<line class="st0" x1="65.3" y1="153.6" x2="78.7" y2="164.1">
	<title>C A</title>
	</line>
	<line class="st0" x1="63.3" y1="42.3" x2="52.2" y2="55.3">
	<title>C A</title>
	</line>
	<line class="st0" x1="210.4" y1="200.5" x2="200.2" y2="211">
	<title>T A</title>
	</line>
	<line class="st0" x1="70.2" y1="182.4" x2="78.7" y2="164.1">
	<title>T C</title>
	</line>
	<line class="st0" x1="194" y1="196.3" x2="200.2" y2="211">
	<title>C A</title>
	</line>
	<line class="st0" x1="104.6" y1="91.3" x2="85" y2="107.9">
	<title>G A</title>
	</line>
	<line class="st0" x1="217.4" y1="160.1" x2="236.6" y2="156.3">
	<title>A G</title>
	</line>
	<line class="st0" x1="148.7" y1="92.1" x2="119.6" y2="80.5">
	<title>G A</title>
	</line>
	<line class="st0" x1="58.1" y1="213.3" x2="62.2" y2="199.6">
	<title>G C</title>
	</line>
	<line class="st0" x1="169.5" y1="126.3" x2="140" y2="116.7">
	<title>C A</title>
	</line>
	<line class="st0" x1="217.4" y1="160.1" x2="192.7" y2="150.2">
	<title>T C</title>
	</line>
	<line class="st0" x1="185.5" y1="213.8" x2="189.7" y2="229.5">
	<title>C A</title>
	</line>
	<line class="st0" x1="142.5" y1="58.9" x2="158.2" y2="56">
	<title>G A</title>
	</line>
	<line class="st0" x1="169.6" y1="260.1" x2="180" y2="246.6">
	<title>A C</title>
	</line>
	<line class="st0" x1="52.2" y1="55.3" x2="53.7" y2="69.7">
	<title>G A</title>
	</line>
	<line class="st0" x1="189.7" y1="229.5" x2="201.1" y2="219.3">
	<title>A T</title>
	</line>
	<g id="csp_4" transform="translate(460.78627697979084,166.35613757467016)">
		<circle class="st1" cx="-397.5" cy="-124.1" r="2.4">
		<title>csp_4</title>
		</circle>
		<path class="st2" d="M-397.5-121.7c-1.3,0-2.4-1.1-2.4-2.4s1.1-2.4,2.4-2.4s2.4,1.1,2.4,2.4S-396.2-121.7-397.5-121.7z"/>
	</g>
	<g id="csp_46" transform="translate(408.7937980488209,188.43699697340367)">
		<circle class="st1" cx="-370.3" cy="-135.6" r="2.4">
		<title>csp_46</title>
		</circle>
		<path class="st2" d="M-370.3-133.2c-1.3,0-2.4-1.1-2.4-2.4c0-1.3,1.1-2.4,2.4-2.4s2.4,1.1,2.4,2.4
			C-367.9-134.3-369-133.2-370.3-133.2z"/>
	</g>
	<g id="csp_15" transform="translate(781.0490053886413,539.0459956642342)">
		<circle class="st1" cx="-564.6" cy="-318.6" r="2.4">
		<title>csp_15</title>
		</circle>
		<path class="st2" d="M-564.6-316.2c-1.3,0-2.4-1.1-2.4-2.4s1.1-2.4,2.4-2.4s2.4,1.1,2.4,2.4S-563.3-316.2-564.6-316.2z"/>
	</g>
	<g id="csp_36" transform="translate(768.5018057517472,497.3208191567083)">
		<circle class="st1" cx="-558.1" cy="-296.8" r="2.4">
		<title>csp_36</title>
		</circle>
		<path class="st2" d="M-558.1-294.4c-1.3,0-2.4-1.1-2.4-2.4s1.1-2.4,2.4-2.4c1.3,0,2.4,1.1,2.4,2.4S-556.7-294.4-558.1-294.4z"/>
	</g>
	<g id="csp_1" transform="translate(716.3949913635186,525.0732090319298)">
		<circle class="st1" cx="-530.9" cy="-311.3" r="2.4">
		<title>csp_1</title>
		</circle>
		<path class="st2" d="M-530.9-308.9c-1.3,0-2.4-1.1-2.4-2.4s1.1-2.4,2.4-2.4c1.3,0,2.4,1.1,2.4,2.4S-529.5-308.9-530.9-308.9z"/>
	</g>
	<g id="csp_8" transform="translate(734.2136155605838,488.42955526301085)">
		<circle class="st1" cx="-540.2" cy="-292.2" r="2.4">
		<title>csp_8</title>
		</circle>
		<path class="st2" d="M-540.2-289.8c-1.3,0-2.4-1.1-2.4-2.4s1.1-2.4,2.4-2.4s2.4,1.1,2.4,2.4S-538.8-289.8-540.2-289.8z"/>
	</g>
	<g id="csp_18" transform="translate(725.0210337870673,557.8934761612907)">
		<circle class="st1" cx="-535.4" cy="-328.4" r="2.4">
		<title>csp_18</title>
		</circle>
		<path class="st2" d="M-535.4-326c-1.3,0-2.4-1.1-2.4-2.4s1.1-2.4,2.4-2.4c1.3,0,2.4,1.1,2.4,2.4S-534.1-326-535.4-326z"/>
	</g>
	<g id="csp_12" transform="translate(748.9199583615729,536.5661940971042)">
		<circle class="st1" cx="-547.8" cy="-317.3" r="2.4">
		<title>csp_12</title>
		</circle>
		<path class="st2" d="M-547.8-314.9c-1.3,0-2.4-1.1-2.4-2.4c0-1.3,1.1-2.4,2.4-2.4s2.4,1.1,2.4,2.4
			C-545.5-316-546.5-314.9-547.8-314.9z"/>
	</g>
	<g id="csp_16" transform="translate(610.3483941147463,92.29192925421047)">
		<circle class="st1" cx="-475.5" cy="-85.4" r="2.4">
		<title>csp_16</title>
		</circle>
		<path class="st2" d="M-475.5-83c-1.3,0-2.4-1.1-2.4-2.4c0-1.3,1.1-2.4,2.4-2.4s2.4,1.1,2.4,2.4C-473.1-84.1-474.2-83-475.5-83z"/>
	</g>
	<g id="csp_94" transform="translate(857.4590481766434,400.0264919749785)">
		<circle class="st1" cx="-604.5" cy="-246" r="2.4">
		<title>csp_94</title>
		</circle>
		<path class="st2" d="M-604.5-243.6c-1.3,0-2.4-1.1-2.4-2.4c0-1.3,1.1-2.4,2.4-2.4s2.4,1.1,2.4,2.4
			C-602.1-244.7-603.2-243.6-604.5-243.6z"/>
	</g>
	<g id="csp_32" transform="translate(783.1575838892935,412.6901943625182)">
		<circle class="st1" cx="-565.7" cy="-252.6" r="2.4">
		<title>csp_32</title>
		</circle>
		<path class="st2" d="M-565.7-250.2c-1.3,0-2.4-1.1-2.4-2.4s1.1-2.4,2.4-2.4s2.4,1.1,2.4,2.4S-564.4-250.2-565.7-250.2z"/>
	</g>
	<g id="csp_22" transform="translate(482.06010424559236,592.0949455446892)">
		<circle class="st1" cx="-408.6" cy="-346.3" r="2.4">
		<title>csp_22</title>
		</circle>
		<path class="st2" d="M-408.6-343.9c-1.3,0-2.4-1.1-2.4-2.4c0-1.3,1.1-2.4,2.4-2.4s2.4,1.1,2.4,2.4
			C-406.2-344.9-407.3-343.9-408.6-343.9z"/>
	</g>
	<g id="csp_35" transform="translate(818.4507159637024,264.7686494474907)">
		<circle class="st1" cx="-584.1" cy="-175.4" r="2.4">
		<title>csp_35</title>
		</circle>
		<path class="st2" d="M-584.1-173c-1.3,0-2.4-1.1-2.4-2.4c0-1.3,1.1-2.4,2.4-2.4s2.4,1.1,2.4,2.4C-581.7-174.1-582.8-173-584.1-173
			z"/>
	</g>
	<g id="csp_39" transform="translate(743.0393177364198,285.56260928099067)">
		<circle class="st1" cx="-544.8" cy="-186.3" r="2.4">
		<title>csp_39</title>
		</circle>
		<path class="st2" d="M-544.8-183.9c-1.3,0-2.4-1.1-2.4-2.4s1.1-2.4,2.4-2.4s2.4,1.1,2.4,2.4S-543.5-183.9-544.8-183.9z"/>
	</g>
	<g id="csp_68" transform="translate(359.7589524264,388.9858646939562)">
		<circle class="st1" cx="-344.7" cy="-240.3" r="2.4">
		<title>csp_68</title>
		</circle>
		<path class="st2" d="M-344.7-237.9c-1.3,0-2.4-1.1-2.4-2.4c0-1.3,1.1-2.4,2.4-2.4s2.4,1.1,2.4,2.4
			C-342.4-238.9-343.4-237.9-344.7-237.9z"/>
	</g>
	<g id="csp_27" transform="translate(615.4662485629616,355.2738523973571)">
		<circle class="st1" cx="-478.2" cy="-222.7" r="2.4">
		<title>csp_27</title>
		</circle>
		<path class="st2" d="M-478.2-220.3c-1.3,0-2.4-1.1-2.4-2.4s1.1-2.4,2.4-2.4s2.4,1.1,2.4,2.4S-476.9-220.3-478.2-220.3z"/>
	</g>
	<g id="csp_47" transform="translate(693.0132654103209,191.0629927466719)">
		<circle class="st1" cx="-518.7" cy="-137" r="2.4">
		<title>csp_47</title>
		</circle>
		<path class="st2" d="M-518.7-134.6c-1.3,0-2.4-1.1-2.4-2.4c0-1.3,1.1-2.4,2.4-2.4s2.4,1.1,2.4,2.4
			C-516.3-135.7-517.3-134.6-518.7-134.6z"/>
	</g>
	<g id="csp_11" transform="translate(682.8562620885867,342.0214286166842)">
		<circle class="st1" cx="-513.4" cy="-215.8" r="2.4">
		<title>csp_11</title>
		</circle>
		<path class="st2" d="M-513.4-213.4c-1.3,0-2.4-1.1-2.4-2.4c0-1.3,1.1-2.4,2.4-2.4s2.4,1.1,2.4,2.4
			C-511-214.4-512-213.4-513.4-213.4z"/>
	</g>
	<g id="csp_3D7" transform="translate(547.035704287836,268.81235670445403)">
		<circle class="st1" cx="-442.5" cy="-177.5" r="2.4">
		<title>csp_3D7</title>
		</circle>
		<path class="st2" d="M-442.5-179.9L-442.5-179.9v2.4V-179.9z"/>
		<path class="st3" d="M-442.5-175.2c-1.3,0-2.4-1.1-2.4-2.4c0-1.3,1.1-2.4,2.4-2.4s2.4,1.1,2.4,2.4
			C-440.1-176.2-441.2-175.2-442.5-175.2z"/>
	</g>
	<g id="csp_55" transform="translate(639.2716525709757,270.65317248723727)">
		<circle class="st1" cx="-490.6" cy="-178.5" r="2.4">
		<title>csp_55</title>
		</circle>
		<path class="st2" d="M-490.6-176.1c-1.3,0-2.4-1.1-2.4-2.4c0-1.3,1.1-2.4,2.4-2.4s2.4,1.1,2.4,2.4
			C-488.2-177.2-489.3-176.1-490.6-176.1z"/>
	</g>
	<g id="csp_31" transform="translate(626.3073523743006,201.1136410966156)">
		<circle class="st1" cx="-483.9" cy="-142.2" r="2.4">
		<title>csp_31</title>
		</circle>
		<path class="st2" d="M-483.9-139.8c-1.3,0-2.4-1.1-2.4-2.4s1.1-2.4,2.4-2.4s2.4,1.1,2.4,2.4S-482.5-139.8-483.9-139.8z"/>
	</g>
	<g id="csp_10" transform="translate(621.2466375787135,322.0756301759073)">
		<circle class="st1" cx="-481.2" cy="-205.3" r="2.4">
		<title>csp_10</title>
		</circle>
		<path class="st2" d="M-481.2-203c-1.3,0-2.4-1.1-2.4-2.4s1.1-2.4,2.4-2.4c1.3,0,2.4,1.1,2.4,2.4S-479.9-203-481.2-203z"/>
	</g>
	<g id="csp_7" transform="translate(731.3042944661629,392.14176236800097)">
		<circle class="st1" cx="-538.6" cy="-241.9" r="2.4">
		<title>csp_7</title>
		</circle>
		<path class="st2" d="M-538.6-239.5c-1.3,0-2.4-1.1-2.4-2.4c0-1.3,1.1-2.4,2.4-2.4s2.4,1.1,2.4,2.4
			C-536.3-240.6-537.3-239.5-538.6-239.5z"/>
	</g>
	<g id="csp_99" transform="translate(475.16258624539114,459.4484169842029)">
		<circle class="st1" cx="-405" cy="-277" r="2.4">
		<title>csp_99</title>
		</circle>
		<path class="st2" d="M-405-274.6c-1.3,0-2.4-1.1-2.4-2.4c0-1.3,1.1-2.4,2.4-2.4c1.3,0,2.4,1.1,2.4,2.4
			C-402.6-275.7-403.7-274.6-405-274.6z"/>
	</g>
	<g id="csp_53" transform="translate(725.710285135476,113.13881005802317)">
		<circle class="st1" cx="-535.7" cy="-96.3" r="2.4">
		<title>csp_53</title>
		</circle>
		<path class="st2" d="M-535.7-93.9c-1.3,0-2.4-1.1-2.4-2.4c0-1.3,1.1-2.4,2.4-2.4c1.3,0,2.4,1.1,2.4,2.4
			C-533.3-95-534.4-93.9-535.7-93.9z"/>
	</g>
	<g id="csp_19" transform="translate(691.5182696800325,133.4026426286248)">
		<circle class="st1" cx="-517.9" cy="-106.9" r="2.4">
		<title>csp_19</title>
		</circle>
		<path class="st2" d="M-517.9-104.5c-1.3,0-2.4-1.1-2.4-2.4s1.1-2.4,2.4-2.4s2.4,1.1,2.4,2.4S-516.6-104.5-517.9-104.5z"/>
	</g>
	<g id="csp_117" transform="translate(655.1794056046729,643.2871774079307)">
		<circle class="st1" cx="-498.9" cy="-373" r="2.4">
		<title>csp_117</title>
		</circle>
		<path class="st2" d="M-498.9-370.6c-1.3,0-2.4-1.1-2.4-2.4s1.1-2.4,2.4-2.4c1.3,0,2.4,1.1,2.4,2.4S-497.6-370.6-498.9-370.6z"/>
	</g>
	<g id="csp_111" transform="translate(683.1537613443068,621.9335591942698)">
		<circle class="st1" cx="-513.5" cy="-361.8" r="2.4">
		<title>csp_111</title>
		</circle>
		<path class="st2" d="M-513.5-359.4c-1.3,0-2.4-1.1-2.4-2.4c0-1.3,1.1-2.4,2.4-2.4s2.4,1.1,2.4,2.4
			C-511.1-360.5-512.2-359.4-513.5-359.4z"/>
	</g>
	<g id="In3" transform="translate(437.61056945778034,193.61335391379114)">
		<circle class="st1" cx="-385.4" cy="-138.3" r="1">
		<title>In3</title>
		</circle>
		<path class="st2" d="M-385.4-137.3c-0.5,0-1-0.4-1-1s0.4-1,1-1c0.5,0,1,0.4,1,1S-384.9-137.3-385.4-137.3z"/>
	</g>
	<g id="In27" transform="translate(440.59687311552426,223.7670595769925)">
		<circle class="st1" cx="-386.9" cy="-154" r="1">
		<title>In27</title>
		</circle>
		<path class="st2" d="M-386.9-153.1c-0.5,0-1-0.4-1-1s0.4-1,1-1c0.5,0,1,0.4,1,1S-386.4-153.1-386.9-153.1z"/>
	</g>
	<g id="In28" transform="translate(465.57740695083976,245.8783511777877)">
		<circle class="st1" cx="-400" cy="-165.6" r="1">
		<title>In28</title>
		</circle>
		<path class="st2" d="M-400-164.6c-0.5,0-1-0.4-1-1s0.4-1,1-1c0.5,0,1,0.4,1,1S-399.4-164.6-400-164.6z"/>
	</g>
	<g id="In29" transform="translate(503.4568892170934,258.4609467890391)">
		<circle class="st1" cx="-419.7" cy="-172.1" r="1">
		<title>In29</title>
		</circle>
		<path class="st2" d="M-419.7-171.2c-0.5,0-1-0.4-1-1s0.4-1,1-1c0.5,0,1,0.4,1,1S-419.2-171.2-419.7-171.2z"/>
	</g>
	<g id="In30" transform="translate(495.70585330370477,156.98515376245)">
		<circle class="st1" cx="-415.7" cy="-119.2" r="1">
		<title>In30</title>
		</circle>
		<path class="st2" d="M-415.7-118.2c-0.5,0-1-0.4-1-1s0.4-1,1-1c0.5,0,1,0.4,1,1S-415.2-118.2-415.7-118.2z"/>
	</g>
	<g id="In31" transform="translate(525.2763272697056,175.71614969925898)">
		<circle class="st1" cx="-431.1" cy="-129" r="1">
		<title>In31</title>
		</circle>
		<path class="st2" d="M-431.1-128c-0.5,0-1-0.4-1-1s0.4-1,1-1c0.5,0,1,0.4,1,1S-430.6-128-431.1-128z"/>
	</g>
	<g id="In32" transform="translate(552.1518766118097,208.63235317760822)">
		<circle class="st1" cx="-445.2" cy="-146.1" r="1">
		<title>In32</title>
		</circle>
		<path class="st2" d="M-445.2-145.2c-0.5,0-1-0.4-1-1s0.4-1,1-1c0.5,0,1,0.4,1,1S-444.6-145.2-445.2-145.2z"/>
	</g>
	<g id="In21" transform="translate(747.0173830615892,519.1589629633628)">
		<circle class="st1" cx="-546.8" cy="-308.2" r="1">
		<title>In21</title>
		</circle>
		<path class="st2" d="M-546.8-307.2c-0.5,0-1-0.4-1-1c0-0.5,0.4-1,1-1s1,0.4,1,1C-545.9-307.7-546.3-307.2-546.8-307.2z"/>
	</g>
	<g id="In24" transform="translate(788.300960897365,456.6761636224195)">
		<circle class="st1" cx="-568.4" cy="-275.6" r="1">
		<title>In24</title>
		</circle>
		<path class="st2" d="M-568.4-274.6c-0.5,0-1-0.4-1-1c0-0.5,0.4-1,1-1s1,0.4,1,1C-567.4-275.1-567.9-274.6-568.4-274.6z"/>
	</g>
	<g id="In25" transform="translate(729.6436657612253,440.60549044439165)">
		<circle class="st1" cx="-537.8" cy="-267.2" r="1">
		<title>In25</title>
		</circle>
		<path class="st2" d="M-537.8-266.2c-0.5,0-1-0.4-1-1c0-0.5,0.4-1,1-1s1,0.4,1,1C-536.8-266.7-537.3-266.2-537.8-266.2z"/>
	</g>
	<g id="In22" transform="translate(611.487985569906,124.24035173880814)">
		<circle class="st1" cx="-476.1" cy="-102.1" r="1">
		<title>In22</title>
		</circle>
		<path class="st2" d="M-476.1-101.1c-0.5,0-1-0.4-1-1s0.4-1,1-1c0.5,0,1,0.4,1,1S-475.6-101.1-476.1-101.1z"/>
	</g>
	<g id="In23" transform="translate(616.7459026197498,158.4320524916415)">
		<circle class="st1" cx="-478.9" cy="-119.9" r="1">
		<title>In23</title>
		</circle>
		<path class="st2" d="M-478.9-119c-0.5,0-1-0.4-1-1s0.4-1,1-1c0.5,0,1,0.4,1,1S-478.3-119-478.9-119z"/>
	</g>
	<g id="In19" transform="translate(823.2932151374314,404.86949319321275)">
		<circle class="st1" cx="-586.7" cy="-248.6" r="1">
		<title>In19</title>
		</circle>
		<path class="st2" d="M-586.7-247.6c-0.5,0-1-0.4-1-1s0.4-1,1-1s1,0.4,1,1S-586.1-247.6-586.7-247.6z"/>
	</g>
	<g id="In15" transform="translate(475.77809187601736,565.0874749438162)">
		<circle class="st1" cx="-405.3" cy="-332.2" r="1">
		<title>In15</title>
		</circle>
		<path class="st2" d="M-405.3-331.2c-0.5,0-1-0.4-1-1c0-0.5,0.4-1,1-1c0.5,0,1,0.4,1,1C-404.3-331.6-404.8-331.2-405.3-331.2z"/>
	</g>
	<g id="In16" transform="translate(457.136589920545,549.031076938602)">
		<circle class="st1" cx="-395.6" cy="-323.8" r="1">
		<title>In16</title>
		</circle>
		<path class="st2" d="M-395.6-322.8c-0.5,0-1-0.4-1-1c0-0.5,0.4-1,1-1c0.5,0,1,0.4,1,1C-394.6-323.3-395-322.8-395.6-322.8z"/>
	</g>
	<g id="In17" transform="translate(449.9227700448938,523.9531532656322)">
		<circle class="st1" cx="-391.8" cy="-310.7" r="1">
		<title>In17</title>
		</circle>
		<path class="st2" d="M-391.8-309.7c-0.5,0-1-0.4-1-1c0-0.5,0.4-1,1-1c0.5,0,1,0.4,1,1C-390.8-310.2-391.3-309.7-391.8-309.7z"/>
	</g>
	<g id="In18" transform="translate(458.3606029642519,495.4869727058409)">
		<circle class="st1" cx="-396.2" cy="-295.8" r="1">
		<title>In18</title>
		</circle>
		<path class="st2" d="M-396.2-294.9c-0.5,0-1-0.4-1-1c0-0.5,0.4-1,1-1c0.5,0,1,0.4,1,1C-395.3-295.3-395.7-294.9-396.2-294.9z"/>
	</g>
	<g id="In2" transform="translate(785.2726130633744,274.02992962723454)">
		<circle class="st1" cx="-566.8" cy="-180.3" r="1">
		<title>In2</title>
		</circle>
		<path class="st2" d="M-566.8-179.3c-0.5,0-1-0.4-1-1s0.4-1,1-1s1,0.4,1,1S-566.3-179.3-566.8-179.3z"/>
	</g>
	<g id="In12" transform="translate(693.5795533082577,298.21759582624185)">
		<circle class="st1" cx="-519" cy="-192.9" r="1">
		<title>In12</title>
		</circle>
		<path class="st2" d="M-519-191.9c-0.5,0-1-0.4-1-1s0.4-1,1-1s1,0.4,1,1S-518.4-191.9-519-191.9z"/>
	</g>
	<g id="In5" transform="translate(388.3491153587915,386.96371148385674)">
		<circle class="st1" cx="-359.7" cy="-239.2" r="1">
		<title>In5</title>
		</circle>
		<path class="st2" d="M-359.7-238.3c-0.5,0-1-0.4-1-1s0.4-1,1-1c0.5,0,1,0.4,1,1S-359.1-238.3-359.7-238.3z"/>
	</g>
	<g id="In6" transform="translate(414.4560233883742,378.1056296179686)">
		<circle class="st1" cx="-373.3" cy="-234.6" r="1">
		<title>In6</title>
		</circle>
		<path class="st2" d="M-373.3-233.6c-0.5,0-1-0.4-1-1s0.4-1,1-1c0.5,0,1,0.4,1,1S-372.8-233.6-373.3-233.6z"/>
	</g>
	<g id="In7" transform="translate(445.8480203265175,370.44104718918277)">
		<circle class="st1" cx="-389.7" cy="-230.6" r="1">
		<title>In7</title>
		</circle>
		<path class="st2" d="M-389.7-229.6c-0.5,0-1-0.4-1-1s0.4-1,1-1c0.5,0,1,0.4,1,1S-389.1-229.6-389.7-229.6z"/>
	</g>
	<g id="In8" transform="translate(469.5708377934377,338.3336102551982)">
		<circle class="st1" cx="-402.1" cy="-213.8" r="1">
		<title>In8</title>
		</circle>
		<path class="st2" d="M-402.1-212.9c-0.5,0-1-0.4-1-1s0.4-1,1-1c0.5,0,1,0.4,1,1S-401.5-212.9-402.1-212.9z"/>
	</g>
	<g id="In9" transform="translate(506.20323019051114,303.66369163023126)">
		<circle class="st1" cx="-421.2" cy="-195.7" r="1">
		<title>In9</title>
		</circle>
		<path class="st2" d="M-421.2-194.8c-0.5,0-1-0.4-1-1s0.4-1,1-1s1,0.4,1,1S-420.6-194.8-421.2-194.8z"/>
	</g>
	<g id="In4" transform="translate(659.1731776333207,195.00844014672555)">
		<circle class="st1" cx="-501" cy="-139" r="1">
		<title>In4</title>
		</circle>
		<path class="st2" d="M-501-138.1c-0.5,0-1-0.4-1-1s0.4-1,1-1c0.5,0,1,0.4,1,1S-500.5-138.1-501-138.1z"/>
	</g>
	<g id="In0" transform="translate(578.5033120826174,246.3434405703119)">
		<circle class="st1" cx="-458.9" cy="-165.8" r="1">
		<title>In0</title>
		</circle>
		<path class="st2" d="M-458.9-164.9c-0.5,0-1-0.4-1-1s0.4-1,1-1c0.5,0,1,0.4,1,1S-458.4-164.9-458.9-164.9z"/>
	</g>
	<g id="In1" transform="translate(599.4365132033856,263.12820551065664)">
		<circle class="st1" cx="-469.8" cy="-174.6" r="1">
		<title>In1</title>
		</circle>
		<path class="st2" d="M-469.8-173.6c-0.5,0-1-0.4-1-1s0.4-1,1-1c0.5,0,1,0.4,1,1S-469.3-173.6-469.8-173.6z"/>
	</g>
	<g id="In10" transform="translate(465.03257303036116,399.11095494273223)">
		<circle class="st1" cx="-399.7" cy="-245.5" r="1">
		<title>In10</title>
		</circle>
		<path class="st2" d="M-399.7-244.6c-0.5,0-1-0.4-1-1s0.4-1,1-1c0.5,0,1,0.4,1,1S-399.2-244.6-399.7-244.6z"/>
	</g>
	<g id="In11" transform="translate(493.0196115056988,421.05024368284626)">
		<circle class="st1" cx="-414.3" cy="-257" r="1">
		<title>In11</title>
		</circle>
		<path class="st2" d="M-414.3-256c-0.5,0-1-0.4-1-1c0-0.5,0.4-1,1-1c0.5,0,1,0.4,1,1C-413.3-256.5-413.8-256-414.3-256z"/>
	</g>
	<g id="In13" transform="translate(531.7542706134449,397.76725910275144)">
		<circle class="st1" cx="-434.5" cy="-244.8" r="1">
		<title>In13</title>
		</circle>
		<path class="st2" d="M-434.5-243.9c-0.5,0-1-0.4-1-1s0.4-1,1-1c0.5,0,1,0.4,1,1S-434-243.9-434.5-243.9z"/>
	</g>
	<g id="In14" transform="translate(575.5249607687897,362.3851397571468)">
		<circle class="st1" cx="-457.4" cy="-226.4" r="1">
		<title>In14</title>
		</circle>
		<path class="st2" d="M-457.4-225.4c-0.5,0-1-0.4-1-1s0.4-1,1-1c0.5,0,1,0.4,1,1S-456.8-225.4-457.4-225.4z"/>
	</g>
	<g id="In20" transform="translate(657.2402409729576,163.45581275096276)">
		<circle class="st1" cx="-500" cy="-122.6" r="1">
		<title>In20</title>
		</circle>
		<path class="st2" d="M-500-121.6c-0.5,0-1-0.4-1-1c0-0.5,0.4-1,1-1c0.5,0,1,0.4,1,1C-499-122-499.5-121.6-500-121.6z"/>
	</g>
	<g id="In26" transform="translate(704.9298152625253,593.6207071054672)">
		<circle class="st1" cx="-524.9" cy="-347.1" r="1">
		<title>In26</title>
		</circle>
		<path class="st2" d="M-524.9-346.1c-0.5,0-1-0.4-1-1s0.4-1,1-1c0.5,0,1,0.4,1,1S-524.4-346.1-524.9-346.1z"/>
	</g>
</g>
<path class="st4" d="M15,147.2c1.4,0,2.5,1.1,2.5,2.5c0,1.4-1.1,2.5-2.5,2.5c-0.3,0-0.6-0.1-0.9-0.2l0.9-2.3V147.2z"/>
<path class="st5" d="M14.2,152.1c-1.1-0.4-1.8-1.6-1.6-2.8l2.5,0.4L14.2,152.1z"/>
<path class="st6" d="M12.5,149.3c0.2-1.2,1.2-2.1,2.5-2.1v2.5L12.5,149.3z"/>
<text transform="matrix(1 0 0 1 7.2222 158.2712)" class="st7 st8">CSP-68</text>
<text transform="matrix(1 0 0 1 100.8997 99.1492)"><tspan x="0" y="0" class="st7 st8">CSP-Reference</tspan><tspan x="9" y="4.8" class="st7 st8">(3D7)</tspan></text>
<path class="st5" d="M70.2,180.9c1.4,0,2.5,1.1,2.5,2.5c0,0.4-0.1,0.9-0.3,1.2l-2.2-1.2V180.9z"/>
<path class="st6" d="M72.4,184.7c-0.7,1.2-2.2,1.6-3.4,0.9c-1.2-0.7-1.6-2.2-0.9-3.4c0.4-0.8,1.3-1.2,2.2-1.2v2.5L72.4,184.7z"/>
<text transform="matrix(1 0 0 1 74.4558 185.0618)" class="st7 st8">CSP-99</text>
<text transform="matrix(1 0 0 1 77.7685 248.1445)" class="st7 st8">CSP-22</text>
<text transform="matrix(1 0 0 1 160.4164 273.6993)" class="st7 st8">CSP-117</text>
<text transform="matrix(1 0 0 1 173.5001 262.8948)" class="st7 st8">CSP-111</text>
<text transform="matrix(1 0 0 1 171.6668 231.5615)" class="st7 st8">CSP-18</text>
<text transform="matrix(1 0 0 1 169.6327 216.3945)" class="st7 st8">CSP-1</text>
<text transform="matrix(1 0 0 1 197.8334 227.1988)" class="st7 st8">CSP-12</text>
<text transform="matrix(1 0 0 1 220.2495 223.0618)" class="st7 st8">CSP-15</text>
<text transform="matrix(1 0 0 1 214.0482 203.0618)" class="st7 st8">CSP-36</text>
<text transform="matrix(1 0 0 1 177.9164 198.2281)" class="st7 st8">CSP-8</text>
<text transform="matrix(1 0 0 1 246.5001 161.8945)" class="st7 st8">CSP-94</text>
<text transform="matrix(1 0 0 1 220.2495 166.1448)" class="st7 st8">CSP-32</text>
<text transform="matrix(1 0 0 1 196.3328 150.5611)" class="st7 st8">CSP-7</text>
<text transform="matrix(1 0 0 1 173.5001 128.0616)" class="st7 st8">CSP-11</text>
<text transform="matrix(1 0 0 1 190.9044 107.3223)" class="st7 st8">CSP-39</text>
<text transform="matrix(1 0 0 1 228.3338 97.6451)" class="st7 st8">CSP-35</text>
<text transform="matrix(1 0 0 1 152.6668 93.8013)" class="st7 st8">CSP-55</text>
<text transform="matrix(1 0 0 1 130.5616 140.8541)" class="st7 st8">CSP-27</text>
<text transform="matrix(1 0 0 1 143.9996 117.2145)" class="st7 st8">CSP-10</text>
<text transform="matrix(1 0 0 1 125.0103 61.2851)" class="st7 st8">CSP-31</text>
<text transform="matrix(1 0 0 1 167.0998 62.2851)" class="st7 st8">CSP-47</text>
<text transform="matrix(1 0 0 1 178.2498 29.645)" class="st7 st8">CSP-19</text>
<text transform="matrix(1 0 0 1 194.0453 18.9781)" class="st7 st8">CSP-53</text>
<text transform="matrix(1 0 0 1 138.8377 9.3115)" class="st7 st8">CSP-16</text>
<text transform="matrix(1 0 0 1 31.583 61.2851)" class="st7 st8">CSP-46</text>
<text transform="matrix(1 0 0 1 57.7728 38.7955)" class="st7 st8">CSP-4</text>
<path class="st5" d="M73.5,244.3c1.2,0,2.2,0.9,2.5,2.1l-2.5,0.4V244.3z"/>
<path class="st4" d="M75.9,246.4c0.3,1.1-0.6,2.5-2,2.9c-0.4,0.1-0.9,0-1.3-0.1l0.9-2.3L75.9,246.4z"/>
<path class="st6" d="M72.6,249.2c-1.3-0.5-2-1.9-1.5-3.2c0.4-1,1.3-1.6,2.3-1.6v2.5L72.6,249.2z"/>
<path class="st4" d="M140,115.2c1.4,0,2.5,1.1,2.5,2.5H140V115.2z"/>
<path class="st6" d="M142.5,117.7c0,1.4-1.1,2.5-2.5,2.5s-2.5-1.1-2.5-2.5s1.1-2.5,2.5-2.5v2.5H142.5z"/>
<path class="st4" d="M137.3,131.1c1.4,0,2.5,1.1,2.5,2.5s-1.1,2.5-2.5,2.5v-2.5V131.1z"/>
<path class="st6" d="M137.3,136.1c-1.4,0-2.5-1.1-2.5-2.5s1.1-2.5,2.5-2.5v2.5V136.1z"/>
<path class="st4" d="M169.5,124.8c1.4,0,2.5,1.1,2.5,2.5s-1.1,2.5-2.5,2.5c-0.2,0-0.5,0-0.7-0.1l0.7-2.4V124.8z"/>
<path class="st5" d="M168.8,129.7c-1.3-0.4-2.1-1.8-1.7-3.1c0-0.1,0.1-0.2,0.1-0.3l2.3,1L168.8,129.7z"/>
<path class="st6" d="M167.2,126.2c0.4-0.9,1.3-1.5,2.3-1.5v2.5L167.2,126.2z"/>
<path class="st4" d="M234.3,87.8c1.4,0,2.5,1.1,2.5,2.5c0,0.9-0.5,1.8-1.3,2.2l-1.2-2.2V87.8z"/>
<path class="st5" d="M235.5,92.5c-1.2,0.6-2.7,0.2-3.4-1.1c0-0.1-0.1-0.2-0.1-0.3l2.3-0.9L235.5,92.5z"/>
<path class="st6" d="M232,91.2c-0.5-1.3,0.2-2.7,1.5-3.2c0.3-0.1,0.6-0.2,0.9-0.2v2.5L232,91.2z"/>
<path class="st4" d="M198.3,102.7c-1.4,0-2.5-1.1-2.5-2.5c0-1.4,1.1-2.5,2.5-2.5s2.5,1.1,2.5,2.5
	C200.8,101.6,199.6,102.7,198.3,102.7z"/>
<path class="st5" d="M148.7,90.6c1.4,0,2.5,1.1,2.5,2.5c0,1.4-1.1,2.5-2.5,2.5c-1.4,0-2.5-1.1-2.5-2.5c0-0.3,0-0.5,0.1-0.8l2.4,0.8
	V90.6z"/>
<path class="st4" d="M146.3,92.4c0.3-1,1.3-1.7,2.4-1.7v2.5L146.3,92.4z"/>
<path class="st5" d="M142.5,57.4c1.4,0,2.5,1.1,2.5,2.5c0,0.4-0.1,0.9-0.3,1.2l-2.2-1.2V57.4z"/>
<path class="st6" d="M144.6,61.1c-0.7,1.2-2.2,1.6-3.4,0.9c-1.2-0.7-1.6-2.2-0.9-3.4c0.4-0.8,1.3-1.2,2.2-1.2v2.5L144.6,61.1z"/>
<path class="st5" d="M134.8,5.4c0.6,0,1.2,0.2,1.6,0.6l-1.6,1.9V5.4z"/>
<path class="st6" d="M136.4,5.9c1.1,0.9,1.2,2.5,0.3,3.5c-0.9,1.1-2.5,1.2-3.5,0.3s-1.2-2.5-0.3-3.5c0.5-0.6,1.2-0.9,1.9-0.9v2.5
	L136.4,5.9z"/>
<path class="st4" d="M174.3,52.6c1.4,0,2.5,1.1,2.5,2.5c0,1.4-1.1,2.5-2.5,2.5v-2.5V52.6z"/>
<path class="st5" d="M174.3,57.6c-1.4,0-2.5-1.1-2.5-2.5c0-1.4,1.1-2.5,2.5-2.5v2.5V57.6z"/>
<path class="st5" d="M173.7,25c1.4,0,2.5,1.1,2.5,2.5c0,0.4-0.1,0.9-0.3,1.2l-2.2-1.2V25z"/>
<path class="st6" d="M175.8,28.8c-0.7,1.2-2.2,1.6-3.4,0.9c-1.2-0.7-1.6-2.2-0.9-3.4c0.4-0.8,1.3-1.2,2.2-1.2v2.5L175.8,28.8z"/>
<path class="st4" d="M190,15.3c1.4,0,2.5,1.1,2.5,2.5c0,0.4-0.1,0.9-0.3,1.2l-2.2-1.2V15.3z"/>
<path class="st5" d="M192.1,19.1c-0.7,1.2-2.2,1.6-3.4,0.9s-1.6-2.2-0.9-3.4c0.4-0.8,1.3-1.2,2.2-1.2v2.5L192.1,19.1z"/>
<path class="st4" d="M192.7,148.7c1.4,0,2.5,1.1,2.5,2.5c0,0.4-0.1,0.9-0.3,1.2l-2.2-1.2V148.7z"/>
<path class="st6" d="M194.8,152.5c-0.7,1.2-2.2,1.6-3.4,0.9c-1.2-0.7-1.6-2.2-0.9-3.4c0.4-0.8,1.3-1.2,2.2-1.2v2.5L194.8,152.5z"/>
<path class="st5" d="M217.4,158.6c1.2,0,2.3,0.9,2.5,2.1l-2.5,0.4V158.6z"/>
<path class="st6" d="M219.9,160.6c0.2,1.4-0.7,2.7-2,2.9s-2.7-0.7-2.9-2c-0.2-1.4,0.7-2.7,2-2.9c0.1,0,0.3,0,0.4,0v2.5L219.9,160.6z
	"/>
<path class="st5" d="M253,152.5c1.4,0,2.5,1.1,2.5,2.5c0,1.4-1.1,2.5-2.5,2.5V155V152.5z"/>
<path class="st4" d="M253,157.5c-1.4,0-2.5-1.1-2.5-2.5h2.5V157.5z"/>
<path class="st6" d="M250.5,155c0-1.4,1.1-2.5,2.5-2.5v2.5H250.5z"/>
<path class="st5" d="M194,194.8c1.4,0,2.5,1.1,2.5,2.5c0,0.6-0.2,1.2-0.6,1.6l-1.9-1.6V194.8z"/>
<path class="st4" d="M195.9,198.9c-0.9,1-2.5,1.2-3.5,0.3c-0.6-0.6-1-1.4-0.8-2.2l2.5,0.4L195.9,198.9z"/>
<path class="st6" d="M191.6,196.9c0.2-1.2,1.2-2.1,2.5-2.1v2.5L191.6,196.9z"/>
<path class="st4" d="M210.4,199c1.4,0,2.5,1.1,2.5,2.5c0,1.4-1.1,2.5-2.5,2.5s-2.5-1.1-2.5-2.5c0-0.4,0.1-0.9,0.3-1.3l2.2,1.3V199z"
	/>
<path class="st5" d="M208.3,200.3c0.4-0.8,1.3-1.3,2.2-1.3v2.5L208.3,200.3z"/>
<path class="st5" d="M216.4,219c1.4,0,2.5,1.1,2.5,2.5c0,1.4-1.1,2.5-2.5,2.5v-2.5V219z"/>
<path class="st4" d="M216.4,224c-1.4,0-2.5-1.1-2.5-2.5c0-1.4,1.1-2.5,2.5-2.5v2.5V224z"/>
<path class="st4" d="M185.5,212.3c1.4,0,2.5,1.1,2.5,2.5c0,0.4-0.1,0.9-0.3,1.2l-2.2-1.2V212.3z"/>
<path class="st5" d="M187.7,216c-0.7,1.2-2.2,1.6-3.4,0.9c-0.4-0.2-0.7-0.5-0.9-0.9l2.2-1.2L187.7,216z"/>
<path class="st6" d="M183.4,216c-0.7-1.2-0.3-2.7,0.9-3.4c0.4-0.2,0.8-0.3,1.2-0.3v2.5L183.4,216z"/>
<path class="st5" d="M201.1,217.8c1.4,0,2.5,1.1,2.5,2.5c0,1.1-0.7,2-1.6,2.3l-0.9-2.3V217.8z"/>
<path class="st4" d="M201.9,222.6c-1.1,0.4-2.4,0-3-1.1l2.2-1.2L201.9,222.6z"/>
<path class="st6" d="M198.9,221.5c-0.7-1.2-0.3-2.7,0.9-3.4c0.4-0.2,0.8-0.3,1.2-0.3v2.5L198.9,221.5z"/>
<path class="st5" d="M189.7,228c0.8,0,1.5,0.3,2,0.9l-2,1.6V228z"/>
<path class="st4" d="M191.6,228.9c0.9,1.1,0.7,2.7-0.4,3.5c-0.8,0.6-1.8,0.7-2.6,0.3l1.1-2.3L191.6,228.9z"/>
<path class="st6" d="M188.6,232.7c-1.2-0.6-1.8-2.1-1.2-3.3c0.4-0.9,1.3-1.4,2.3-1.4v2.5L188.6,232.7z"/>
<path class="st5" d="M169.6,258.6c1.4,0,2.5,1.1,2.5,2.5c0,0.4-0.1,0.9-0.3,1.2l-2.2-1.2V258.6z"/>
<path class="st6" d="M171.8,262.3c-0.7,1.2-2.2,1.6-3.4,0.9c-1.2-0.7-1.6-2.2-0.9-3.4c0.4-0.8,1.3-1.2,2.2-1.2v2.5L171.8,262.3z"/>
<path class="st5" d="M156.3,268.8c1.4,0,2.5,1.1,2.5,2.5s-1.1,2.5-2.5,2.5v-2.5V268.8z"/>
<path class="st4" d="M156.3,273.8c-1.4,0-2.5-1.1-2.5-2.5s1.1-2.5,2.5-2.5v2.5V273.8z"/>
<g transform="translate(50,140)">
	<g transform="translate(1244,385)">
		<rect x="-1171.6" y="-363" class="st9" width="32.9" height="37.4"/>
		<g>
			<g transform="translate(0,0)">
				<rect x="-1168.3" y="-354.7" class="st10" width="7.5" height="5.4"/>
				<text transform="matrix(1 0 0 1 -1159.3459 -350.4821)" class="st7 st11">Reference</text>
			</g>
			<g transform="translate(0,23)">
				<rect x="-1168.3" y="-370.8" class="st12" width="7.5" height="5.4"/>
				<text transform="matrix(1 0 0 1 -1159.3459 -366.6091)" class="st7 st11">North</text>
			</g>
			<g transform="translate(0,46)">
				<rect x="-1168.3" y="-386.9" class="st13" width="7.5" height="5.4"/>
				<text transform="matrix(1 0 0 1 -1159.3459 -382.7361)" class="st7 st11">Central</text>
			</g>
			<g transform="translate(0,69)">
				<rect x="-1168.3" y="-403" class="st14" width="7.5" height="5.4"/>
				<text transform="matrix(1 0 0 1 -1159.3459 -398.863)" class="st7 st11">South</text>
			</g>
			<text transform="matrix(1 0 0 1 -1168.3108 -356.7575)" class="st7 st11">Groups</text>
		</g>
	</g>
</g>
<path class="st4" d="M38.5,51.3c1.4,0,2.5,1.1,2.5,2.5c0,1.2-0.9,2.3-2.1,2.5l-0.4-2.5V51.3z"/>
<path class="st5" d="M38.9,56.3c-1.1,0.2-2.2-0.4-2.7-1.5l2.3-1L38.9,56.3z"/>
<path class="st6" d="M36.2,54.8c-0.6-1.3,0-2.7,1.3-3.3c0.3-0.1,0.7-0.2,1-0.2v2.5L36.2,54.8z"/>
<path class="st4" d="M63.3,45.8c-1.4,0-2.5-1.1-2.5-2.5c0-1.4,1.1-2.5,2.5-2.5s2.5,1.1,2.5,2.5C65.8,44.7,64.7,45.8,63.3,45.8z"/>
</svg>
