<svg width="712" height="497" xmlns="http://www.w3.org/2000/svg" xmlns:xlink="http://www.w3.org/1999/xlink" overflow="hidden"><defs><clipPath id="clip0"><rect x="198" y="96" width="712" height="497"/></clipPath></defs><g clip-path="url(#clip0)" transform="translate(-198 -96)"><path d="M850.881 502.002 850.881 502.002" stroke="#AAAAAA" stroke-width="0.087664" stroke-linecap="round" stroke-miterlimit="8" stroke-dasharray="0.241076 0.745144" fill="none" fill-rule="evenodd"/><text font-family="Arial,Arial_MSFontService,sans-serif" font-weight="400" font-size="15" transform="matrix(0.89549 0.445082 -0.445082 0.89549 848.088 506)">csp<tspan font-size="15" x="22.7609" y="-0.145696">-</tspan><tspan font-size="15" x="27.9721" y="0.61435">7</tspan></text><path d="M850.132 501.869 802.558 478.224" stroke="#000000" stroke-width="0.292178" stroke-linecap="round" stroke-miterlimit="8" fill="none" fill-rule="evenodd"/><path d="M552.216 417.681 605.338 418.343" stroke="#000000" stroke-width="0.292178" stroke-linecap="round" stroke-miterlimit="8" fill="none" fill-rule="evenodd"/><path d="M372.516 497.311 410.548 460.217" stroke="#000000" stroke-width="0.292178" stroke-linecap="round" stroke-miterlimit="8" fill="none" fill-rule="evenodd"/><path d="M783.446 315.717 738.114 343.419" stroke="#000000" stroke-width="0.292178" stroke-linecap="round" stroke-miterlimit="8" fill="none" fill-rule="evenodd"/><path d="M418.934 271.523 456.029 309.555" stroke="#000000" stroke-width="0.292178" stroke-linecap="round" stroke-miterlimit="8" fill="none" fill-rule="evenodd"/><path d="M378.608 238.032 378.608 238.032" stroke="#AAAAAA" stroke-width="0.087664" stroke-linecap="round" stroke-miterlimit="8" stroke-dasharray="0.241076 0.745144" fill="none" fill-rule="evenodd"/><text font-family="Arial,Arial_MSFontService,sans-serif" font-weight="400" font-size="15" transform="matrix(0.773998 0.633188 -0.633188 0.773998 340.501 214)">csp<tspan font-size="15" x="22.5435" y="-0.354342">-</tspan><tspan font-size="15" x="27.3386" y="-0.401101">15</tspan></text><path d="M377.836 237.894 418.956 271.532" stroke="#000000" stroke-width="0.292178" stroke-linecap="round" stroke-miterlimit="8" fill="none" fill-rule="evenodd"/><path d="M789.755 498.081 752.661 460.05" stroke="#000000" stroke-width="0.292178" stroke-linecap="round" stroke-miterlimit="8" fill="none" fill-rule="evenodd"/><path d="M823.089 540.143 823.089 540.143" stroke="#AAAAAA" stroke-width="0.087664" stroke-linecap="round" stroke-miterlimit="8" stroke-dasharray="0.241076 0.745144" fill="none" fill-rule="evenodd"/><text font-family="Arial,Arial_MSFontService,sans-serif" font-weight="400" font-size="15" transform="matrix(0.613695 0.789543 -0.789543 0.613695 818.588 543)">csp<tspan font-size="15" x="22.8113" y="-0.017128">-</tspan><tspan font-size="15" x="27.7898" y="0.0957174">10</tspan></text><path d="M822.338 540.016 789.735 498.07" stroke="#000000" stroke-width="0.292178" stroke-linecap="round" stroke-miterlimit="8" fill="none" fill-rule="evenodd"/><path d="M450.734 256.698 456.023 309.56" stroke="#000000" stroke-width="0.292178" stroke-linecap="round" stroke-miterlimit="8" fill="none" fill-rule="evenodd"/><path d="M831.603 531.841 831.603 531.841" stroke="#AAAAAA" stroke-width="0.087664" stroke-linecap="round" stroke-miterlimit="8" stroke-dasharray="0.241076 0.745144" fill="none" fill-rule="evenodd"/><text font-family="Arial,Arial_MSFontService,sans-serif" font-weight="400" font-size="15" transform="matrix(0.773998 0.633188 -0.633188 0.773998 827.877 535)">csp<tspan font-size="15" x="23.1767" y="0.419657">-</tspan><tspan font-size="15" x="27.9717" y="0.372917">27</tspan></text><path d="M830.853 531.711 789.734 498.072" stroke="#000000" stroke-width="0.292178" stroke-linecap="round" stroke-miterlimit="8" fill="none" fill-rule="evenodd"/><path d="M331.349 530.018 331.349 530.018" stroke="#AAAAAA" stroke-width="0.087664" stroke-linecap="round" stroke-miterlimit="8" stroke-dasharray="0.241076 0.745144" fill="none" fill-rule="evenodd"/><text font-family="Arial,Arial_MSFontService,sans-serif" font-weight="400" font-size="15" transform="matrix(0.789543 -0.613695 0.613695 0.789543 298.743 561)">csp<tspan font-size="15" x="22.8256" y="0.0100327">-</tspan><tspan font-size="15" x="27.6796" y="-0.0166769">19</tspan></text><path d="M330.583 529.894 372.528 497.291" stroke="#000000" stroke-width="0.292178" stroke-linecap="round" stroke-miterlimit="8" fill="none" fill-rule="evenodd"/><path d="M814.768 426.762 814.768 426.762" stroke="#AAAAAA" stroke-width="0.087664" stroke-linecap="round" stroke-miterlimit="8" stroke-dasharray="0.241076 0.745144" fill="none" fill-rule="evenodd"/><text font-family="Arial,Arial_MSFontService,sans-serif" font-weight="400" font-size="15" transform="matrix(0.999922 0.0124663 -0.0124663 0.999922 814.087 431)">csp<tspan font-size="15" x="22.8422" y="0.715298">-</tspan><tspan font-size="15" x="27.6748" y="0.655049">39</tspan></text><path d="M814.018 426.624 760.897 425.961" stroke="#000000" stroke-width="0.292178" stroke-linecap="round" stroke-miterlimit="8" fill="none" fill-rule="evenodd"/><path d="M696.949 376.128 696.949 376.128" stroke="#000000" stroke-width="0.292178" stroke-linecap="round" stroke-miterlimit="8" fill="none" fill-rule="evenodd"/><path d="M772.513 302.447 772.513 302.447" stroke="#AAAAAA" stroke-width="0.087664" stroke-linecap="round" stroke-miterlimit="8" stroke-dasharray="0.241076 0.745144" fill="none" fill-rule="evenodd"/><text font-family="Arial,Arial_MSFontService,sans-serif" font-weight="400" font-size="15" transform="matrix(0.633188 -0.773998 0.773998 0.633188 775.683 305)">csp<tspan font-size="15" x="22.3125" y="0.426085">-</tspan><tspan font-size="15" x="27.3463" y="0.262097">68</tspan></text><path d="M771.756 302.302 738.117 343.421" stroke="#000000" stroke-width="0.292178" stroke-linecap="round" stroke-miterlimit="8" fill="none" fill-rule="evenodd"/><path d="M423.431 154.583 423.431 154.583" stroke="#AAAAAA" stroke-width="0.087664" stroke-linecap="round" stroke-miterlimit="8" stroke-dasharray="0.241076 0.745144" fill="none" fill-rule="evenodd"/><text font-family="Arial,Arial_MSFontService,sans-serif" font-weight="400" font-size="15" transform="matrix(0.21035 0.977626 -0.977626 0.21035 410.218 120)">csp<tspan font-size="15" x="23.4957" y="0.142497">-</tspan><tspan font-size="15" x="27.6201" y="-0.0100493">8</tspan></text><path d="M422.664 154.439 433.839 206.377" stroke="#000000" stroke-width="0.292178" stroke-linecap="round" stroke-miterlimit="8" fill="none" fill-rule="evenodd"/><path d="M458.668 437.801 500.614 405.198" stroke="#000000" stroke-width="0.292178" stroke-linecap="round" stroke-miterlimit="8" fill="none" fill-rule="evenodd"/><path d="M658.163 413.078 696.194 375.983" stroke="#000000" stroke-width="0.292178" stroke-linecap="round" stroke-miterlimit="8" fill="none" fill-rule="evenodd"/><path d="M311.253 493.96 311.253 493.96" stroke="#AAAAAA" stroke-width="0.087664" stroke-linecap="round" stroke-miterlimit="8" stroke-dasharray="0.241076 0.745144" fill="none" fill-rule="evenodd"/><text font-family="Arial,Arial_MSFontService,sans-serif" font-weight="400" font-size="15" transform="matrix(0.906308 -0.422618 0.422618 0.906308 272.537 517)">csp<tspan font-size="15" x="22.9813" y="-0.317416">-</tspan><tspan font-size="15" x="27.7966" y="-0.278755">16</tspan></text><path d="M310.485 493.834 358.633 471.382" stroke="#000000" stroke-width="0.292178" stroke-linecap="round" stroke-miterlimit="8" fill="none" fill-rule="evenodd"/><path d="M752.682 460.058 708.055 431.235" stroke="#000000" stroke-width="0.292178" stroke-linecap="round" stroke-miterlimit="8" fill="none" fill-rule="evenodd"/><path d="M605.316 418.352 658.178 413.062" stroke="#000000" stroke-width="0.292178" stroke-linecap="round" stroke-miterlimit="8" fill="none" fill-rule="evenodd"/><path d="M826.132 283.277 826.132 283.277" stroke="#AAAAAA" stroke-width="0.087664" stroke-linecap="round" stroke-miterlimit="8" stroke-dasharray="0.241076 0.745144" fill="none" fill-rule="evenodd"/><text font-family="Arial,Arial_MSFontService,sans-serif" font-weight="400" font-size="15" transform="matrix(0.789543 -0.613695 0.613695 0.789543 828.529 287)">csp<tspan font-size="15" x="22.8255" y="0.0100136">-</tspan><tspan font-size="15" x="27.6796" y="-0.0166578">99</tspan></text><path d="M825.378 283.133 783.433 315.736" stroke="#000000" stroke-width="0.292178" stroke-linecap="round" stroke-miterlimit="8" fill="none" fill-rule="evenodd"/><path d="M376.235 318.212 376.235 318.212" stroke="#AAAAAA" stroke-width="0.087664" stroke-linecap="round" stroke-miterlimit="8" stroke-dasharray="0.241076 0.745144" fill="none" fill-rule="evenodd"/><text font-family="Arial,Arial_MSFontService,sans-serif" font-weight="400" font-size="15" transform="matrix(0.89549 0.445082 -0.445082 0.89549 328.475 300)">csp<tspan font-size="15" x="22.7609" y="-0.145696">-</tspan><tspan font-size="15" x="27.972" y="0.614365">111</tspan></text><path d="M375.462 318.077 423.036 341.722" stroke="#000000" stroke-width="0.292178" stroke-linecap="round" stroke-miterlimit="8" fill="none" fill-rule="evenodd"/><path d="M412.158 158.369 412.158 158.369" stroke="#AAAAAA" stroke-width="0.087664" stroke-linecap="round" stroke-miterlimit="8" stroke-dasharray="0.241076 0.745144" fill="none" fill-rule="evenodd"/><text font-family="Arial,Arial_MSFontService,sans-serif" font-weight="400" font-size="15" transform="matrix(0.422618 0.906308 -0.906308 0.422618 391.665 128)">csp<tspan font-size="15" x="22.2043" y="-0.293305">-</tspan><tspan font-size="15" x="27.5991" y="-0.031496">1</tspan></text><path d="M411.389 158.227 433.841 206.375" stroke="#000000" stroke-width="0.292178" stroke-linecap="round" stroke-miterlimit="8" fill="none" fill-rule="evenodd"/><path d="M720.592 328.577 720.592 328.577" stroke="#AAAAAA" stroke-width="0.087664" stroke-linecap="round" stroke-miterlimit="8" stroke-dasharray="0.241076 0.745144" fill="none" fill-rule="evenodd"/><text fill="#FF0000" font-family="Arial,Arial_MSFontService,sans-serif" font-weight="400" font-size="15" transform="matrix(0.445082 -0.89549 0.89549 0.445082 723.699 331)">csp<tspan font-size="15" x="26.8074" y="0.0129251">reference</tspan></text><path d="M719.833 328.431 696.187 376.005" stroke="#000000" stroke-width="0.292178" stroke-linecap="round" stroke-miterlimit="8" fill="none" fill-rule="evenodd"/><path d="M387.122 229.73 387.122 229.73" stroke="#AAAAAA" stroke-width="0.087664" stroke-linecap="round" stroke-miterlimit="8" stroke-dasharray="0.241076 0.745144" fill="none" fill-rule="evenodd"/><text font-family="Arial,Arial_MSFontService,sans-serif" font-weight="400" font-size="15" transform="matrix(0.613695 0.789543 -0.789543 0.613695 355.317 198)">csp<tspan font-size="15" x="22.8113" y="-0.017128">-</tspan><tspan font-size="15" x="27.7898" y="0.0957174">18</tspan></text><path d="M386.351 229.589 418.954 271.535" stroke="#000000" stroke-width="0.292178" stroke-linecap="round" stroke-miterlimit="8" fill="none" fill-rule="evenodd"/><path d="M417.622 535.375 417.622 535.375" stroke="#AAAAAA" stroke-width="0.087664" stroke-linecap="round" stroke-miterlimit="8" stroke-dasharray="0.241076 0.745144" fill="none" fill-rule="evenodd"/><text font-family="Arial,Arial_MSFontService,sans-serif" font-weight="400" font-size="15" transform="matrix(0.445082 -0.89549 0.89549 0.445082 401.643 577)">csp<tspan font-size="15" x="22.433" y="0.19898">-</tspan><tspan font-size="15" x="27.868" y="-0.100038">46</tspan></text><path d="M416.86 535.253 440.506 487.679" stroke="#000000" stroke-width="0.292178" stroke-linecap="round" stroke-miterlimit="8" fill="none" fill-rule="evenodd"/><path d="M358.615 471.396 410.552 460.221" stroke="#000000" stroke-width="0.292178" stroke-linecap="round" stroke-miterlimit="8" fill="none" fill-rule="evenodd"/><path d="M557.511 470.529 552.222 417.667" stroke="#000000" stroke-width="0.292178" stroke-linecap="round" stroke-miterlimit="8" fill="none" fill-rule="evenodd"/><path d="M253.445 476.134 253.445 476.134" stroke="#AAAAAA" stroke-width="0.087664" stroke-linecap="round" stroke-miterlimit="8" stroke-dasharray="0.241076 0.745144" fill="none" fill-rule="evenodd"/><text font-family="Arial,Arial_MSFontService,sans-serif" font-weight="400" font-size="15" transform="matrix(0.999922 0.0124663 -0.0124663 0.999922 208.421 480)">csp<tspan font-size="15" x="22.8423" y="0.715298">-</tspan><tspan font-size="15" x="27.6748" y="0.655049">31</tspan></text><path d="M252.673 476.004 305.795 476.666" stroke="#000000" stroke-width="0.292178" stroke-linecap="round" stroke-miterlimit="8" fill="none" fill-rule="evenodd"/><path d="M569.43 522.57 569.43 522.57" stroke="#AAAAAA" stroke-width="0.087664" stroke-linecap="round" stroke-miterlimit="8" stroke-dasharray="0.241076 0.745144" fill="none" fill-rule="evenodd"/><text font-family="Arial,Arial_MSFontService,sans-serif" font-weight="400" font-size="15" transform="matrix(0.21035 0.977626 -0.977626 0.21035 563.892 523)">csp<tspan font-size="15" x="23.4957" y="0.142527">-</tspan><tspan font-size="15" x="28.5977" y="0.2003">94</tspan></text><path d="M568.675 522.445 557.5 470.508" stroke="#000000" stroke-width="0.292178" stroke-linecap="round" stroke-miterlimit="8" fill="none" fill-rule="evenodd"/><path d="M372.166 329.386 372.166 329.386" stroke="#AAAAAA" stroke-width="0.087664" stroke-linecap="round" stroke-miterlimit="8" stroke-dasharray="0.241076 0.745144" fill="none" fill-rule="evenodd"/><text font-family="Arial,Arial_MSFontService,sans-serif" font-weight="400" font-size="15" transform="matrix(0.972078 0.234657 -0.234657 0.972078 320.483 322)">csp<tspan font-size="15" x="22.7493" y="-0.348012">-</tspan><tspan font-size="15" x="27.5512" y="-0.478448">117</tspan></text><path d="M371.394 329.253 423.036 341.719" stroke="#000000" stroke-width="0.292178" stroke-linecap="round" stroke-miterlimit="8" fill="none" fill-rule="evenodd"/><path d="M760.918 425.953 708.056 431.242" stroke="#000000" stroke-width="0.292178" stroke-linecap="round" stroke-miterlimit="8" fill="none" fill-rule="evenodd"/><path d="M557.597 523.752 557.597 523.752" stroke="#AAAAAA" stroke-width="0.087664" stroke-linecap="round" stroke-miterlimit="8" stroke-dasharray="0.241076 0.745144" fill="none" fill-rule="evenodd"/><text font-family="Arial,Arial_MSFontService,sans-serif" font-weight="400" font-size="15" transform="matrix(0.0124666 -0.999922 0.999922 0.0124666 561.277 568)">csp<tspan font-size="15" x="23.0018" y="-0.00208512">-</tspan><tspan font-size="15" x="28.0021" y="-0.00418094">32</tspan></text><path d="M556.84 523.629 557.503 470.507" stroke="#000000" stroke-width="0.292178" stroke-linecap="round" stroke-miterlimit="8" fill="none" fill-rule="evenodd"/><path d="M500.596 405.209 552.238 417.676" stroke="#000000" stroke-width="0.292178" stroke-linecap="round" stroke-miterlimit="8" fill="none" fill-rule="evenodd"/><path d="M738.128 343.4 696.182 376.003" stroke="#000000" stroke-width="0.292178" stroke-linecap="round" stroke-miterlimit="8" fill="none" fill-rule="evenodd"/><path d="M456.011 309.54 472.931 359.9" stroke="#000000" stroke-width="0.292178" stroke-linecap="round" stroke-miterlimit="8" fill="none" fill-rule="evenodd"/><path d="M440.818 488.149 458.988 438.227" stroke="#000000" stroke-width="0.292178" stroke-linecap="round" stroke-miterlimit="8" fill="none" fill-rule="evenodd"/><path d="M472.915 359.883 500.616 405.215" stroke="#000000" stroke-width="0.292178" stroke-linecap="round" stroke-miterlimit="8" fill="none" fill-rule="evenodd"/><path d="M457.347 204.006 450.741 256.72" stroke="#000000" stroke-width="0.292178" stroke-linecap="round" stroke-miterlimit="8" fill="none" fill-rule="evenodd"/><path d="M428.796 539.444 428.796 539.444" stroke="#AAAAAA" stroke-width="0.087664" stroke-linecap="round" stroke-miterlimit="8" stroke-dasharray="0.241076 0.745144" fill="none" fill-rule="evenodd"/><text font-family="Arial,Arial_MSFontService,sans-serif" font-weight="400" font-size="15" transform="matrix(0.234657 -0.972078 0.972078 0.234657 424.404 575)">csp<tspan font-size="15" x="22.643" y="0.0459614">-</tspan><tspan font-size="15" x="26.7975" y="0.209848">4</tspan></text><path d="M428.037 539.321 440.503 487.679" stroke="#000000" stroke-width="0.292178" stroke-linecap="round" stroke-miterlimit="8" fill="none" fill-rule="evenodd"/><path d="M254.627 487.966 254.627 487.966" stroke="#AAAAAA" stroke-width="0.087664" stroke-linecap="round" stroke-miterlimit="8" stroke-dasharray="0.241076 0.745144" fill="none" fill-rule="evenodd"/><text font-family="Arial,Arial_MSFontService,sans-serif" font-weight="400" font-size="15" transform="matrix(0.977626 -0.21035 0.21035 0.977626 211.69 502)">csp<tspan font-size="15" x="22.8748" y="-0.192599">-</tspan><tspan font-size="15" x="27.7046" y="-0.176279">47</tspan></text><path d="M253.856 487.839 305.794 476.663" stroke="#000000" stroke-width="0.292178" stroke-linecap="round" stroke-miterlimit="8" fill="none" fill-rule="evenodd"/><path d="M470.579 152.532 470.579 152.532" stroke="#AAAAAA" stroke-width="0.087664" stroke-linecap="round" stroke-miterlimit="8" stroke-dasharray="0.241076 0.745144" fill="none" fill-rule="evenodd"/><text font-family="Arial,Arial_MSFontService,sans-serif" font-weight="400" font-size="15" transform="matrix(0.234657 -0.972078 0.972078 0.234657 474.581 153)">csp<tspan font-size="15" x="22.643" y="0.0459318">-</tspan><tspan font-size="15" x="26.7975" y="0.209819">12</tspan></text><path d="M469.817 152.386 457.351 204.029" stroke="#000000" stroke-width="0.292178" stroke-linecap="round" stroke-miterlimit="8" fill="none" fill-rule="evenodd"/><path d="M423.461 341.407 473.383 359.577" stroke="#000000" stroke-width="0.292178" stroke-linecap="round" stroke-miterlimit="8" fill="none" fill-rule="evenodd"/><path d="M803.029 477.912 753.107 459.742" stroke="#000000" stroke-width="0.292178" stroke-linecap="round" stroke-miterlimit="8" fill="none" fill-rule="evenodd"/><path d="M832.332 293.425 832.332 293.425" stroke="#AAAAAA" stroke-width="0.087664" stroke-linecap="round" stroke-miterlimit="8" stroke-dasharray="0.241076 0.745144" fill="none" fill-rule="evenodd"/><text font-family="Arial,Arial_MSFontService,sans-serif" font-weight="400" font-size="15" transform="matrix(0.906308 -0.422618 0.422618 0.906308 833.788 298)">csp<tspan font-size="15" x="22.9813" y="-0.317403">-</tspan><tspan font-size="15" x="27.7967" y="-0.278742">22</tspan></text><path d="M831.579 293.283 783.431 315.735" stroke="#000000" stroke-width="0.292178" stroke-linecap="round" stroke-miterlimit="8" fill="none" fill-rule="evenodd"/><path d="M305.773 476.675 358.635 471.385" stroke="#000000" stroke-width="0.292178" stroke-linecap="round" stroke-miterlimit="8" fill="none" fill-rule="evenodd"/><path d="M458.78 151.052 458.78 151.052" stroke="#AAAAAA" stroke-width="0.087664" stroke-linecap="round" stroke-miterlimit="8" stroke-dasharray="0.241076 0.745144" fill="none" fill-rule="evenodd"/><text font-family="Arial,Arial_MSFontService,sans-serif" font-weight="400" font-size="15" transform="matrix(0.0124666 -0.999922 0.999922 0.0124666 462.914 151)">csp<tspan font-size="15" x="23.0018" y="-0.00208512">-</tspan><tspan font-size="15" x="28.0021" y="-0.00418094">36</tspan></text><path d="M458.016 150.906 457.353 204.028" stroke="#000000" stroke-width="0.292178" stroke-linecap="round" stroke-miterlimit="8" fill="none" fill-rule="evenodd"/><path d="M854.95 490.828 854.95 490.828" stroke="#AAAAAA" stroke-width="0.087664" stroke-linecap="round" stroke-miterlimit="8" stroke-dasharray="0.241076 0.745144" fill="none" fill-rule="evenodd"/><text font-family="Arial,Arial_MSFontService,sans-serif" font-weight="400" font-size="15" transform="matrix(0.972078 0.234657 -0.234657 0.972078 853.197 495)">csp<tspan font-size="15" x="22.984" y="0.624058">-</tspan><tspan font-size="15" x="27.7858" y="0.49363">11</tspan></text><path d="M854.201 490.693 802.558 478.227" stroke="#000000" stroke-width="0.292178" stroke-linecap="round" stroke-miterlimit="8" fill="none" fill-rule="evenodd"/><path d="M708.526 430.924 658.603 412.754" stroke="#000000" stroke-width="0.292178" stroke-linecap="round" stroke-miterlimit="8" fill="none" fill-rule="evenodd"/><path d="M813.586 414.929 813.586 414.929" stroke="#AAAAAA" stroke-width="0.087664" stroke-linecap="round" stroke-miterlimit="8" stroke-dasharray="0.241076 0.745144" fill="none" fill-rule="evenodd"/><text font-family="Arial,Arial_MSFontService,sans-serif" font-weight="400" font-size="15" transform="matrix(0.977626 -0.21035 0.21035 0.977626 814.004 420)">csp<tspan font-size="15" x="22.8748" y="-0.192603">-</tspan><tspan font-size="15" x="27.7045" y="-0.176291">35</tspan></text><path d="M812.835 414.789 760.898 425.964" stroke="#000000" stroke-width="0.292178" stroke-linecap="round" stroke-miterlimit="8" fill="none" fill-rule="evenodd"/><path d="M339.651 538.532 339.651 538.532" stroke="#AAAAAA" stroke-width="0.087664" stroke-linecap="round" stroke-miterlimit="8" stroke-dasharray="0.241076 0.745144" fill="none" fill-rule="evenodd"/><text font-family="Arial,Arial_MSFontService,sans-serif" font-weight="400" font-size="15" transform="matrix(0.633188 -0.773998 0.773998 0.633188 314.74 576)">csp<tspan font-size="15" x="23.0865" y="-0.207078">-</tspan><tspan font-size="15" x="28.1203" y="-0.371091">53</tspan></text><path d="M338.887 538.409 372.525 497.29" stroke="#000000" stroke-width="0.292178" stroke-linecap="round" stroke-miterlimit="8" fill="none" fill-rule="evenodd"/><path d="M410.534 460.235 458.683 437.783" stroke="#000000" stroke-width="0.292178" stroke-linecap="round" stroke-miterlimit="8" fill="none" fill-rule="evenodd"/><path d="M628.523 466.613 628.523 466.613" stroke="#AAAAAA" stroke-width="0.087664" stroke-linecap="round" stroke-miterlimit="8" stroke-dasharray="0.241076 0.745144" fill="none" fill-rule="evenodd"/><text font-family="Arial,Arial_MSFontService,sans-serif" font-weight="400" font-size="15" transform="matrix(0.422618 0.906308 -0.906308 0.422618 623.353 469)">csp<tspan font-size="15" x="22.2043" y="-0.293305">-</tspan><tspan font-size="15" x="27.5991" y="-0.031496">55</tspan></text><path d="M627.771 466.487 605.318 418.339" stroke="#000000" stroke-width="0.292178" stroke-linecap="round" stroke-miterlimit="8" fill="none" fill-rule="evenodd"/><path d="M433.826 206.358 450.746 256.718" stroke="#000000" stroke-width="0.292178" stroke-linecap="round" stroke-miterlimit="8" fill="none" fill-rule="evenodd"/></g></svg>