<svg id="SVG" width="100%" height="100%" viewBox="0 0 2048 1208" preserveAspectRatio="xMidYMid meet"><g transform="translate(1,4)scale(1)"><defs></defs><line class="link" style="stroke-width: 1px; stroke: rgb(0, 0, 0);" x1="1003.9668497384189" y1="739.9538862986667" x2="971.7937260999985" y2="789.5573085956966"><title>G A</title></line><line class="link" style="stroke-width: 1px; stroke: rgb(0, 0, 0);" x1="935.8566791783492" y1="854.3883467798472" x2="890.7534258951895" y2="876.3261983611324"><title>C G</title></line><line class="link" style="stroke-width: 1px; stroke: rgb(0, 0, 0);" x1="1066.6838985949746" y1="857.7260675607354" x2="1003.4224369545593" y2="813.6104218254774"><title>T A</title></line><line class="link" style="stroke-width: 1px; stroke: rgb(0, 0, 0);" x1="1380.9161159398002" y1="849.6119693562413" x2="1371.8008600042122" y2="873.4644315452605"><title>A T</title></line><line class="link" style="stroke-width: 1px; stroke: rgb(0, 0, 0);" x1="915.8684526277694" y1="387.08446730925755" x2="947.8682491056089" y2="416.0092510246299"><title>C A</title></line><line class="link" style="stroke-width: 1px; stroke: rgb(0, 0, 0);" x1="1309.9127879566365" y1="960.5289109852758" x2="1287.5441353331319" y2="977.3694239057714"><title>G A</title></line><line class="link" style="stroke-width: 1px; stroke: rgb(0, 0, 0);" x1="995.4551667752991" y1="446.29067169582174" x2="1039.2655689842384" y2="389.20901471050354"><title>C A</title></line><line class="link" style="stroke-width: 1px; stroke: rgb(0, 0, 0);" x1="935.8566791783492" y1="854.3883467798472" x2="931.8851794809503" y2="914.0908081723717"><title>G C</title></line><line class="link" style="stroke-width: 1px; stroke: rgb(0, 0, 0);" x1="1360.5021494903694" y1="896.9998958788697" x2="1346.3555862478313" y2="919.7244356248777"><title>A T</title></line><line class="link" style="stroke-width: 1px; stroke: rgb(0, 0, 0);" x1="758.6386515667253" y1="291.85118325483563" x2="725.5945625738098" y2="319.9278571488932"><title>A G</title></line><line class="link" style="stroke-width: 1px; stroke: rgb(0, 0, 0);" x1="1130.6022914131595" y1="420.48333467983474" x2="1103.8899938983936" y2="361.16686926999097"><title>T C</title></line><line class="link" style="stroke-width: 1px; stroke: rgb(0, 0, 0);" x1="935.1469377648575" y1="965.8097342736207" x2="931.8851794809503" y2="914.0908081723717"><title>C A</title></line><line class="link" style="stroke-width: 1px; stroke: rgb(0, 0, 0);" x1="1117.9758123936665" y1="899.9968068664546" x2="1066.6838985949746" y2="857.7260675607354"><title>A T</title></line><line class="link" style="stroke-width: 1px; stroke: rgb(0, 0, 0);" x1="657.9064140985229" y1="552.7134447855373" x2="680.2514976405067" y2="535.8447409417225"><title>G A</title></line><line class="link" style="stroke-width: 1px; stroke: rgb(0, 0, 0);" x1="935.8566791783492" y1="854.3883467798472" x2="969.1285347377502" y2="885.5633738471155"><title>G A</title></line><line class="link" style="stroke-width: 1px; stroke: rgb(0, 0, 0);" x1="1003.4224369545593" y1="813.6104218254774" x2="971.7937260999985" y2="789.5573085956966"><title>A C</title></line><line class="link" style="stroke-width: 1px; stroke: rgb(0, 0, 0);" x1="733.3130049357933" y1="467.87721536897806" x2="748.8849123163089" y2="523.0845305742986"><title>T C</title></line><line class="link" style="stroke-width: 1px; stroke: rgb(0, 0, 0);" x1="1174.1826318540004" y1="342.64168070620923" x2="1103.8899938983936" y2="361.16686926999097"><title>A C</title></line><line class="link" style="stroke-width: 1px; stroke: rgb(0, 0, 0);" x1="1103.8899938983936" y1="361.16686926999097" x2="1039.2655689842384" y2="389.20901471050354"><title>C A</title></line><line class="link" style="stroke-width: 1px; stroke: rgb(0, 0, 0);" x1="722.7462676553356" y1="781.9289449631272" x2="662.0427364488277" y2="781.0546943153091"><title>G C</title></line><line class="link" style="stroke-width: 1px; stroke: rgb(0, 0, 0);" x1="986.3426228935728" y1="623.7199120097177" x2="1014.9835702976369" y2="525.0604307795842"><title>G C</title></line><line class="link" style="stroke-width: 1px; stroke: rgb(0, 0, 0);" x1="860.8850897829163" y1="890.802703053535" x2="890.7534258951895" y2="876.3261983611324"><title>C A</title></line><line class="link" style="stroke-width: 1px; stroke: rgb(0, 0, 0);" x1="1474.476083378975" y1="718.4910954407746" x2="1455.2370554027723" y2="730.4609395806367"><title>T A</title></line><line class="link" style="stroke-width: 1px; stroke: rgb(0, 0, 0);" x1="1389.7487527922426" y1="346.6734211748499" x2="1342.4551949320426" y2="329.9176834543281"><title>A C</title></line><line class="link" style="stroke-width: 1px; stroke: rgb(0, 0, 0);" x1="1287.5441353331319" y1="977.3694239057714" x2="1262.1626073962723" y2="988.9450667493119"><title>A T</title></line><line class="link" style="stroke-width: 1px; stroke: rgb(0, 0, 0);" x1="995.4551667752991" y1="446.29067169582174" x2="947.8682491056089" y2="416.0092510246299"><title>A G</title></line><line class="link" style="stroke-width: 1px; stroke: rgb(0, 0, 0);" x1="748.8849123163089" y1="523.0845305742986" x2="794.1411538896963" y2="566.8304926181947"><title>G A</title></line><line class="link" style="stroke-width: 1px; stroke: rgb(0, 0, 0);" x1="1346.3555862478313" y1="919.7244356248777" x2="1329.3607296175794" y2="941.1915959104183"><title>T A</title></line><line class="link" style="stroke-width: 1px; stroke: rgb(0, 0, 0);" x1="598.9584499930224" y1="575.8758771158875" x2="640.8177976947098" y2="573.1826022632591"><title>A G</title></line><line class="link" style="stroke-width: 1px; stroke: rgb(0, 0, 0);" x1="943.5556292817483" y1="1014.2626506846207" x2="935.1469377648575" y2="965.8097342736207"><title>C G</title></line><line class="link" style="stroke-width: 1px; stroke: rgb(0, 0, 0);" x1="680.2514976405067" y1="535.8447409417225" x2="712.4410734850063" y2="527.3543932728774"><title>A C</title></line><line class="link" style="stroke-width: 1px; stroke: rgb(0, 0, 0);" x1="986.3426228935728" y1="623.7199120097177" x2="924.7607112997393" y2="685.6864388610751"><title>C A</title></line><line class="link" style="stroke-width: 1px; stroke: rgb(0, 0, 0);" x1="986.3426228935728" y1="623.7199120097177" x2="1024.437275835775" y2="681.5912415557408"><title>A C</title></line><line class="link" style="stroke-width: 1px; stroke: rgb(0, 0, 0);" x1="1207.8199309730403" y1="396.5540635265317" x2="1228.6870135635033" y2="341.23336629853355"><title>C A</title></line><line class="link" style="stroke-width: 1px; stroke: rgb(0, 0, 0);" x1="794.1411538896963" y1="566.8304926181947" x2="854.970472994707" y2="623.5082889539993"><title>G A</title></line><line class="link" style="stroke-width: 1px; stroke: rgb(0, 0, 0);" x1="792.3242002595514" y1="783.6682878164837" x2="844.6593859537682" y2="786.4258721278932"><title>C G</title></line><line class="link" style="stroke-width: 1px; stroke: rgb(0, 0, 0);" x1="1479.1882532629936" y1="691.538202835182" x2="1474.476083378975" y2="718.4910954407746"><title>A T</title></line><line class="link" style="stroke-width: 1px; stroke: rgb(0, 0, 0);" x1="1407.44059354917" y1="779.6726558137581" x2="1396.9399346727462" y2="801.9702794369741"><title>T G</title></line><line class="link" style="stroke-width: 1px; stroke: rgb(0, 0, 0);" x1="1455.2370554027723" y1="730.4609395806367" x2="1436.0485913700493" y2="742.9258181889506"><title>A T</title></line><line class="link" style="stroke-width: 1px; stroke: rgb(0, 0, 0);" x1="1103.8899938983936" y1="361.16686926999097" x2="1153.7164065366687" y2="361.2953269932065"><title>T A</title></line><line class="link" style="stroke-width: 1px; stroke: rgb(0, 0, 0);" x1="1262.1626073962723" y1="988.9450667493119" x2="1233.9515143571875" y2="990.6041509671153"><title>T A</title></line><line class="link" style="stroke-width: 1px; stroke: rgb(0, 0, 0);" x1="1329.3607296175794" y1="941.1915959104183" x2="1309.9127879566365" y2="960.5289109852758"><title>A G</title></line><line class="link" style="stroke-width: 1px; stroke: rgb(0, 0, 0);" x1="718.5638127747051" y1="377.1572185119783" x2="722.3774119829418" y2="414.18642082920127"><title>G C</title></line><line class="link" style="stroke-width: 1px; stroke: rgb(0, 0, 0);" x1="1174.1826318540004" y1="342.64168070620923" x2="1228.6870135635033" y2="341.23336629853355"><title>A T</title></line><line class="link" style="stroke-width: 1px; stroke: rgb(0, 0, 0);" x1="1207.1236353850484" y1="979.355148257565" x2="1181.9083887540082" y2="958.8369994816776"><title>C T</title></line><line class="link" style="stroke-width: 1px; stroke: rgb(0, 0, 0);" x1="640.8177976947098" y1="573.1826022632591" x2="657.9064140985229" y2="552.7134447855373"><title>A C</title></line><line class="link" style="stroke-width: 1px; stroke: rgb(0, 0, 0);" x1="907.0296545709722" y1="788.6320130127051" x2="971.7937260999985" y2="789.5573085956966"><title>A G</title></line><line class="link" style="stroke-width: 1px; stroke: rgb(0, 0, 0);" x1="844.6593859537682" y1="786.4258721278932" x2="907.0296545709722" y2="788.6320130127051"><title>A G</title></line><line class="link" style="stroke-width: 1px; stroke: rgb(0, 0, 0);" x1="1074.78211579325" y1="694.3694991440105" x2="1116.9648491974624" y2="710.6108551285199"><title>C A</title></line><line class="link" style="stroke-width: 1px; stroke: rgb(0, 0, 0);" x1="1396.9399346727462" y1="801.9702794369741" x2="1388.7819930696799" y2="825.6162177255179"><title>G T</title></line><line class="link" style="stroke-width: 1px; stroke: rgb(0, 0, 0);" x1="1436.0485913700493" y1="742.9258181889506" x2="1421.0125760423405" y2="760.1772154082815"><title>T A</title></line><line class="link" style="stroke-width: 1px; stroke: rgb(0, 0, 0);" x1="1003.4224369545593" y1="813.6104218254774" x2="950.2946654801325" y2="780.5229440599828"><title>C A</title></line><line class="link" style="stroke-width: 1px; stroke: rgb(0, 0, 0);" x1="1233.9515143571875" y1="990.6041509671153" x2="1207.1236353850484" y2="979.355148257565"><title>A C</title></line><line class="link" style="stroke-width: 1px; stroke: rgb(0, 0, 0);" x1="722.7462676553356" y1="781.9289449631272" x2="792.3242002595514" y2="783.6682878164837"><title>G C</title></line><line class="link" style="stroke-width: 1px; stroke: rgb(0, 0, 0);" x1="725.5945625738098" y1="319.9278571488932" x2="718.9789153548262" y2="346.2375650001675"><title>C A</title></line><line class="link" style="stroke-width: 1px; stroke: rgb(0, 0, 0);" x1="877.5722514840119" y1="676.2483598113399" x2="924.7607112997393" y2="685.6864388610751"><title>A G</title></line><line class="link" style="stroke-width: 1px; stroke: rgb(0, 0, 0);" x1="924.7607112997393" y1="685.6864388610751" x2="950.2946654801325" y2="780.5229440599828"><title>C A</title></line><line class="link" style="stroke-width: 1px; stroke: rgb(0, 0, 0);" x1="1130.6022914131595" y1="420.48333467983474" x2="1071.910532056002" y2="483.81055307597245"><title>C A</title></line><line class="link" style="stroke-width: 1px; stroke: rgb(0, 0, 0);" x1="1342.4551949320426" y1="329.9176834543281" x2="1293.052813331729" y2="329.20387156155476"><title>A C</title></line><line class="link" style="stroke-width: 1px; stroke: rgb(0, 0, 0);" x1="1003.9668497384189" y1="739.9538862986667" x2="1024.437275835775" y2="681.5912415557408"><title>G C</title></line><line class="link" style="stroke-width: 1px; stroke: rgb(0, 0, 0);" x1="1181.9083887540082" y1="958.8369994816776" x2="1154.1130719362393" y2="932.7509965813888"><title>T G</title></line><line class="link" style="stroke-width: 1px; stroke: rgb(0, 0, 0);" x1="824.1959996338534" y1="917.0254142973195" x2="860.8850897829163" y2="890.802703053535"><title>A G</title></line><line class="link" style="stroke-width: 1px; stroke: rgb(0, 0, 0);" x1="1174.6840646823046" y1="713.2629859601111" x2="1116.9648491974624" y2="710.6108551285199"><title>C G</title></line><line class="link" style="stroke-width: 1px; stroke: rgb(0, 0, 0);" x1="1003.9375594546805" y1="913.3925835212704" x2="969.1285347377502" y2="885.5633738471155"><title>C G</title></line><line class="link" style="stroke-width: 1px; stroke: rgb(0, 0, 0);" x1="935.8566791783492" y1="854.3883467798472" x2="950.2946654801325" y2="780.5229440599828"><title>A C</title></line><line class="link" style="stroke-width: 1px; stroke: rgb(0, 0, 0);" x1="1074.78211579325" y1="694.3694991440105" x2="1024.437275835775" y2="681.5912415557408"><title>A T</title></line><line class="link" style="stroke-width: 1px; stroke: rgb(0, 0, 0);" x1="1130.6022914131595" y1="420.48333467983474" x2="1153.7164065366687" y2="361.2953269932065"><title>C A</title></line><line class="link" style="stroke-width: 1px; stroke: rgb(0, 0, 0);" x1="1138.947459841954" y1="302.9872530472835" x2="1153.7164065366687" y2="361.2953269932065"><title>C G</title></line><line class="link" style="stroke-width: 1px; stroke: rgb(0, 0, 0);" x1="733.3130049357933" y1="467.87721536897806" x2="722.3774119829418" y2="414.18642082920127"><title>A C</title></line><line class="link" style="stroke-width: 1px; stroke: rgb(0, 0, 0);" x1="1388.7819930696799" y1="825.6162177255179" x2="1380.9161159398002" y2="849.6119693562413"><title>T A</title></line><line class="link" style="stroke-width: 1px; stroke: rgb(0, 0, 0);" x1="1014.9835702976369" y1="525.0604307795842" x2="1071.910532056002" y2="483.81055307597245"><title>C A</title></line><line class="link" style="stroke-width: 1px; stroke: rgb(0, 0, 0);" x1="1228.6870135635033" y1="341.23336629853355" x2="1293.052813331729" y2="329.20387156155476"><title>G A</title></line><line class="link" style="stroke-width: 1px; stroke: rgb(0, 0, 0);" x1="1421.0125760423405" y1="760.1772154082815" x2="1407.44059354917" y2="779.6726558137581"><title>A T</title></line><line class="link" style="stroke-width: 1px; stroke: rgb(0, 0, 0);" x1="623.8099206283142" y1="772.1520996617" x2="662.0427364488277" y2="781.0546943153091"><title>A C</title></line><line class="link" style="stroke-width: 1px; stroke: rgb(0, 0, 0);" x1="1130.6022914131595" y1="420.48333467983474" x2="1207.8199309730403" y2="396.5540635265317"><title>C A</title></line><line class="link" style="stroke-width: 1px; stroke: rgb(0, 0, 0);" x1="1371.8008600042122" y1="873.4644315452605" x2="1360.5021494903694" y2="896.9998958788697"><title>T A</title></line><line class="link" style="stroke-width: 1px; stroke: rgb(0, 0, 0);" x1="924.7607112997393" y1="685.6864388610751" x2="854.970472994707" y2="623.5082889539993"><title>G A</title></line><line class="link" style="stroke-width: 1px; stroke: rgb(0, 0, 0);" x1="718.9789153548262" y1="346.2375650001675" x2="718.5638127747051" y2="377.1572185119783"><title>G C</title></line><line class="link" style="stroke-width: 1px; stroke: rgb(0, 0, 0);" x1="1154.1130719362393" y1="932.7509965813888" x2="1117.9758123936665" y2="899.9968068664546"><title>G A</title></line><line class="link" style="stroke-width: 1px; stroke: rgb(0, 0, 0);" x1="712.4410734850063" y1="527.3543932728774" x2="748.8849123163089" y2="523.0845305742986"><title>C A</title></line><line class="link" style="stroke-width: 1px; stroke: rgb(0, 0, 0);" x1="1207.8199309730403" y1="396.5540635265317" x2="1174.1826318540004" y2="342.64168070620923"><title>C T</title></line><line class="link" style="stroke-width: 1px; stroke: rgb(0, 0, 0);" x1="995.4551667752991" y1="446.29067169582174" x2="1014.9835702976369" y2="525.0604307795842"><title>T C</title></line><line class="link" style="stroke-width: 1px; stroke: rgb(0, 0, 0);" x1="1228.6870135635033" y1="341.23336629853355" x2="1153.7164065366687" y2="361.2953269932065"><title>C A</title></line><g class="node" id="csp_35_017_2_S11" style="stroke-width: 2px; stroke: rgb(0, 0, 0); fill: white;" x="1174.6840646823046" y="713.2629859601111" transform="translate(1174.6840646823046,713.2629859601111)"><circle r="25.495097567963924"><title>csp_35_017_2_S11</title></circle><path d="M1.5611244815278244e-15,-25.495097567963924A25.495097567963924,25.495097567963924 0 0,1 1.5611244815278244e-15,-25.495097567963924L0,0Z" style="fill: rgb(255, 255, 255); stroke-width: 0px; stroke: none;"></path><path d="M1.5611244815278244e-15,-25.495097567963924A25.495097567963924,25.495097567963924 0 0,1 11.848162613349565,22.574787766170154L0,0Z" style="fill: rgb(107, 171, 48); stroke-width: 0px; stroke: none;"></path><path d="M11.848162613349565,22.574787766170154A25.495097567963924,25.495097567963924 0 0,1 -23.838330334895684,9.040686193226279L0,0Z" style="fill: rgb(204, 8, 20); stroke-width: 0px; stroke: none;"></path><path d="M-23.838330334895684,9.040686193226279A25.495097567963924,25.495097567963924 0 0,1 -4.683373444583473e-15,-25.495097567963924L0,0Z" style="fill: rgb(61, 133, 198); stroke-width: 0px; stroke: none;"></path></g><g class="node" id="csp_8_040_2_S30" style="stroke-width: 2px; stroke: rgb(0, 0, 0); fill: white;" x="1130.6022914131595" y="420.48333467983474" transform="translate(1130.6022914131595,420.48333467983474)"><circle r="23.45207879911715" style="stroke: rgb(0, 0, 0); stroke-width: 2px;"><title>csp_8_040_2_S30</title></circle><path d="M1.436025661734516e-15,-23.45207879911715A23.45207879911715,23.45207879911715 0 0,1 1.436025661734516e-15,-23.45207879911715L0,0Z" style="fill: rgb(255, 255, 255); stroke-width: 0px; stroke: none;"></path><path d="M1.436025661734516e-15,-23.45207879911715A23.45207879911715,23.45207879911715 0 0,1 17.72389857015531,15.357845534932517L0,0Z" style="fill: rgb(204, 8, 20); stroke-width: 0px; stroke: none;"></path><path d="M17.72389857015531,15.357845534932517A23.45207879911715,23.45207879911715 0 0,1 -23.213370452047393,-3.337578801468691L0,0Z" style="fill: rgb(107, 171, 48); stroke-width: 0px; stroke: none;"></path><path d="M-23.213370452047393,-3.337578801468691A23.45207879911715,23.45207879911715 0 0,1 -4.3080769852035475e-15,-23.45207879911715L0,0Z" style="fill: rgb(61, 133, 198); stroke-width: 0px; stroke: none;"></path></g><g class="node" id="csp_4_018_2_S12" style="stroke-width: 2px; stroke: rgb(0, 0, 0); fill: white;" x="722.7462676553356" y="781.9289449631272" transform="translate(722.7462676553356,781.9289449631272)"><circle r="21.79449471770337"><title>csp_4_018_2_S12</title></circle><path d="M1.3345279097534664e-15,-21.79449471770337A21.79449471770337,21.79449471770337 0 0,1 1.3345279097534664e-15,-21.79449471770337L0,0Z" style="fill: rgb(255, 255, 255); stroke-width: 0px; stroke: none;"></path><path d="M1.3345279097534664e-15,-21.79449471770337A21.79449471770337,21.79449471770337 0 0,1 3.587255928436007,21.49724621675764L0,0Z" style="fill: rgb(107, 171, 48); stroke-width: 0px; stroke: none;"></path><path d="M3.587255928436007,21.49724621675764A21.79449471770337,21.79449471770337 0 0,1 -19.958816930397287,8.754748810724763L0,0Z" style="fill: rgb(204, 8, 20); stroke-width: 0px; stroke: none;"></path><path d="M-19.958816930397287,8.754748810724763A21.79449471770337,21.79449471770337 0 0,1 -4.003583729260399e-15,-21.79449471770337L0,0Z" style="fill: rgb(61, 133, 198); stroke-width: 0px; stroke: none;"></path></g><g class="node" id="csp_1_005_2_S2" style="stroke-width: 2px; stroke: rgb(0, 0, 0); fill: white;" x="1207.8199309730403" y="396.5540635265317" transform="translate(1207.8199309730403,396.5540635265317)"><circle r="17.320508075688775" style="stroke: rgb(0, 0, 0); stroke-width: 2px;"><title>csp_1_005_2_S2</title></circle><path d="M1.060575238724907e-15,-17.320508075688775A17.320508075688775,17.320508075688775 0 0,1 1.060575238724907e-15,-17.320508075688775L0,0Z" style="fill: rgb(255, 255, 255); stroke-width: 0px; stroke: none;"></path><path d="M1.060575238724907e-15,-17.320508075688775A17.320508075688775,17.320508075688775 0 0,1 15.000000000000002,8.660254037844384L0,0Z" style="fill: rgb(107, 171, 48); stroke-width: 0px; stroke: none;"></path><path d="M15.000000000000002,8.660254037844384A17.320508075688775,17.320508075688775 0 0,1 -14.999999999999998,8.660254037844393L0,0Z" style="fill: rgb(204, 8, 20); stroke-width: 0px; stroke: none;"></path><path d="M-14.999999999999998,8.660254037844393A17.320508075688775,17.320508075688775 0 0,1 -3.181725716174721e-15,-17.320508075688775L0,0Z" style="fill: rgb(61, 133, 198); stroke-width: 0px; stroke: none;"></path></g><g class="node" id="csp_11_006_2_S4" style="stroke-width: 2px; stroke: rgb(0, 0, 0); fill: white;" x="986.3426228935728" y="623.7199120097177" transform="translate(986.3426228935728,623.7199120097177)"><circle r="16.583123951777" style="stroke: rgb(0, 0, 0); stroke-width: 2px;"><title>csp_11_006_2_S4</title></circle><path d="M1.0154234833703755e-15,-16.583123951777A16.583123951777,16.583123951777 0 0,1 1.0154234833703755e-15,-16.583123951777L0,0Z" style="fill: rgb(255, 255, 255); stroke-width: 0px; stroke: none;"></path><path d="M1.0154234833703755e-15,-16.583123951777A16.583123951777,16.583123951777 0 1,1 -4.672005911352484,15.911390912308311L0,0Z" style="fill: rgb(107, 171, 48); stroke-width: 0px; stroke: none;"></path><path d="M-4.672005911352484,15.911390912308311A16.583123951777,16.583123951777 0 0,1 -15.084540129466221,-6.888878652039332L0,0Z" style="fill: rgb(204, 8, 20); stroke-width: 0px; stroke: none;"></path><path d="M-15.084540129466221,-6.888878652039332A16.583123951777,16.583123951777 0 0,1 -3.0462704501111265e-15,-16.583123951777L0,0Z" style="fill: rgb(61, 133, 198); stroke-width: 0px; stroke: none;"></path></g><g class="node" id="csp_12_Abass_2_S3" style="stroke-width: 2px; stroke: rgb(0, 0, 0); fill: white;" x="1174.1826318540004" y="342.64168070620923" transform="translate(1174.1826318540004,342.64168070620923)"><circle r="15" style="stroke: rgb(0, 0, 0); stroke-width: 2px;"><title>csp_12_Abass_2_S3</title></circle><path d="M9.18485099360515e-16,-15A15,15 0 0,1 9.18485099360515e-16,-15L0,0Z" style="fill: rgb(255, 255, 255); stroke-width: 0px; stroke: none;"></path><path d="M9.18485099360515e-16,-15A15,15 0 0,1 5.130302149885033,14.095389311788624L0,0Z" style="fill: rgb(204, 8, 20); stroke-width: 0px; stroke: none;"></path><path d="M5.130302149885033,14.095389311788624A15,15 0 0,1 -12.990381056766577,7.500000000000005L0,0Z" style="fill: rgb(107, 171, 48); stroke-width: 0px; stroke: none;"></path><path d="M-12.990381056766577,7.500000000000005A15,15 0 0,1 -2.7554552980815444e-15,-15L0,0Z" style="fill: rgb(61, 133, 198); stroke-width: 0px; stroke: none;"></path></g><g class="node" id="csp_16_Ali_2_S18" style="stroke-width: 2px; stroke: rgb(0, 0, 0); fill: white;" x="824.1959996338534" y="917.0254142973195" transform="translate(824.1959996338534,917.0254142973195)"><circle r="15"><title>csp_16_Ali_2_S18</title></circle><path d="M9.18485099360515e-16,-15A15,15 0 0,1 9.18485099360515e-16,-15L0,0Z" style="fill: rgb(255, 255, 255); stroke-width: 0px; stroke: none;"></path><path d="M9.18485099360515e-16,-15A15,15 0 0,1 9.64181414529809,-11.49066664678467L0,0Z" style="fill: rgb(204, 8, 20); stroke-width: 0px; stroke: none;"></path><path d="M9.64181414529809,-11.49066664678467A15,15 0 1,1 -2.7554552980815444e-15,-15L0,0Z" style="fill: rgb(61, 133, 198); stroke-width: 0px; stroke: none;"></path></g><g class="node" id="csp_32_040_2_S30" style="stroke-width: 2px; stroke: rgb(0, 0, 0); fill: white;" x="995.4551667752991" y="446.29067169582174" transform="translate(995.4551667752991,446.29067169582174)"><circle r="15"><title>csp_32_040_2_S30</title></circle><path d="M9.18485099360515e-16,-15A15,15 0 0,1 9.18485099360515e-16,-15L0,0Z" style="fill: rgb(255, 255, 255); stroke-width: 0px; stroke: none;"></path><path d="M9.18485099360515e-16,-15A15,15 0 0,1 14.772116295183121,-2.604722665003955L0,0Z" style="fill: rgb(204, 8, 20); stroke-width: 0px; stroke: none;"></path><path d="M14.772116295183121,-2.604722665003955A15,15 0 1,1 -2.7554552980815444e-15,-15L0,0Z" style="fill: rgb(61, 133, 198); stroke-width: 0px; stroke: none;"></path></g><g class="node" id="csp_22_025_2_S21" style="stroke-width: 2px; stroke: rgb(0, 0, 0); fill: white;" x="758.6386515667253" y="291.85118325483563" transform="translate(758.6386515667253,291.85118325483563)"><circle r="15" style="stroke: rgb(0, 0, 0); stroke-width: 2px;"><title>csp_22_025_2_S21</title></circle><path d="M9.18485099360515e-16,-15A15,15 0 0,1 9.18485099360515e-16,-15L0,0Z" style="fill: rgb(255, 255, 255); stroke-width: 0px; stroke: none;"></path><path d="M9.18485099360515e-16,-15A15,15 0 0,1 14.772116295183121,-2.604722665003955L0,0Z" style="fill: rgb(204, 8, 20); stroke-width: 0px; stroke: none;"></path><path d="M14.772116295183121,-2.604722665003955A15,15 0 0,1 -5.130302149885024,14.095389311788628L0,0Z" style="fill: rgb(107, 171, 48); stroke-width: 0px; stroke: none;"></path><path d="M-5.130302149885024,14.095389311788628A15,15 0 0,1 -2.7554552980815444e-15,-15L0,0Z" style="fill: rgb(61, 133, 198); stroke-width: 0px; stroke: none;"></path></g><g class="node" id="csp_68_021_2_S15" style="stroke-width: 2px; stroke: rgb(0, 0, 0); fill: white;" x="598.9584499930224" y="575.8758771158875" transform="translate(598.9584499930224,575.8758771158875)"><circle r="15"><title>csp_68_021_2_S15</title></circle><path d="M9.18485099360515e-16,-15A15,15 0 0,1 9.18485099360515e-16,-15L0,0Z" style="fill: rgb(255, 255, 255); stroke-width: 0px; stroke: none;"></path><path d="M9.18485099360515e-16,-15A15,15 0 1,1 -5.130302149885031,14.095389311788626L0,0Z" style="fill: rgb(107, 171, 48); stroke-width: 0px; stroke: none;"></path><path d="M-5.130302149885031,14.095389311788626A15,15 0 0,1 -14.772116295183121,-2.6047226650039503L0,0Z" style="fill: rgb(204, 8, 20); stroke-width: 0px; stroke: none;"></path><path d="M-14.772116295183121,-2.6047226650039503A15,15 0 0,1 -2.7554552980815444e-15,-15L0,0Z" style="fill: rgb(61, 133, 198); stroke-width: 0px; stroke: none;"></path></g><g class="node" id="csp_15_030_2_S27" style="stroke-width: 2px; stroke: rgb(0, 0, 0); fill: white;" x="1138.947459841954" y="302.9872530472835" transform="translate(1138.947459841954,302.9872530472835)"><circle r="14.142135623730951"><title>csp_15_030_2_S27</title></circle><path d="M8.659560562354933e-16,-14.142135623730951A14.142135623730951,14.142135623730951 0 0,1 8.659560562354933e-16,-14.142135623730951L0,0Z" style="fill: rgb(255, 255, 255); stroke-width: 0px; stroke: none;"></path><path d="M8.659560562354933e-16,-14.142135623730951A14.142135623730951,14.142135623730951 0 0,1 8.659560562354933e-16,14.142135623730951L0,0Z" style="fill: rgb(204, 8, 20); stroke-width: 0px; stroke: none;"></path><path d="M8.659560562354933e-16,14.142135623730951A14.142135623730951,14.142135623730951 0 0,1 -2.59786816870648e-15,-14.142135623730951L0,0Z" style="fill: rgb(107, 171, 48); stroke-width: 0px; stroke: none;"></path></g><g class="node" id="csp_18_Abass_2_S3" style="stroke-width: 2px; stroke: rgb(0, 0, 0); fill: white;" x="1228.6870135635033" y="341.23336629853355" transform="translate(1228.6870135635033,341.23336629853355)"><circle r="13.228756555322954"><title>csp_18_Abass_2_S3</title></circle><path d="M8.100277186087911e-16,-13.228756555322954A13.228756555322954,13.228756555322954 0 0,1 8.100277186087911e-16,-13.228756555322954L0,0Z" style="fill: rgb(255, 255, 255); stroke-width: 0px; stroke: none;"></path><path d="M8.100277186087911e-16,-13.228756555322954A13.228756555322954,13.228756555322954 0 0,1 10.342658348856812,-8.24799480351573L0,0Z" style="fill: rgb(204, 8, 20); stroke-width: 0px; stroke: none;"></path><path d="M10.342658348856812,-8.24799480351573A13.228756555322954,13.228756555322954 0 0,1 -5.739742358099431,11.918697817406029L0,0Z" style="fill: rgb(107, 171, 48); stroke-width: 0px; stroke: none;"></path><path d="M-5.739742358099431,11.918697817406029A13.228756555322954,13.228756555322954 0 0,1 -2.4300831558263733e-15,-13.228756555322954L0,0Z" style="fill: rgb(61, 133, 198); stroke-width: 0px; stroke: none;"></path></g><g class="node" id="csp_36_017_2_S11" style="stroke-width: 2px; stroke: rgb(0, 0, 0); fill: white;" x="1103.8899938983936" y="361.16686926999097" transform="translate(1103.8899938983936,361.16686926999097)"><circle r="12.24744871391589"><title>csp_36_017_2_S11</title></circle><path d="M7.499399432609231e-16,-12.24744871391589A12.24744871391589,12.24744871391589 0 0,1 7.499399432609231e-16,-12.24744871391589L0,0Z" style="fill: rgb(255, 255, 255); stroke-width: 0px; stroke: none;"></path><path d="M7.499399432609231e-16,-12.24744871391589A12.24744871391589,12.24744871391589 0 1,1 -10.606601717798217,-6.123724356957937L0,0Z" style="fill: rgb(107, 171, 48); stroke-width: 0px; stroke: none;"></path><path d="M-10.606601717798217,-6.123724356957937A12.24744871391589,12.24744871391589 0 0,1 -1.3127739473866916e-14,-12.24744871391589L0,0Z" style="fill: rgb(204, 8, 20); stroke-width: 0px; stroke: none;"></path></g><g class="node" id="csp_47_019_2_S13" style="stroke-width: 2px; stroke: rgb(0, 0, 0); fill: white;" x="1003.9375594546805" y="913.3925835212704" transform="translate(1003.9375594546805,913.3925835212704)"><circle r="12.24744871391589"><title>csp_47_019_2_S13</title></circle><path d="M7.499399432609231e-16,-12.24744871391589A12.24744871391589,12.24744871391589 0 0,1 7.499399432609231e-16,-12.24744871391589L0,0Z" style="fill: rgb(255, 255, 255); stroke-width: 0px; stroke: none;"></path><path d="M7.499399432609231e-16,-12.24744871391589A12.24744871391589,12.24744871391589 0 0,1 7.499399432609231e-16,12.24744871391589L0,0Z" style="fill: rgb(107, 171, 48); stroke-width: 0px; stroke: none;"></path><path d="M7.499399432609231e-16,12.24744871391589A12.24744871391589,12.24744871391589 0 0,1 -2.2498198297827694e-15,-12.24744871391589L0,0Z" style="fill: rgb(204, 8, 20); stroke-width: 0px; stroke: none;"></path></g><g class="node" id="csp_31_029_2_S25" style="stroke-width: 2px; stroke: rgb(0, 0, 0); fill: white;" x="935.8566791783492" y="854.3883467798472" transform="translate(935.8566791783492,854.3883467798472)"><circle r="12.24744871391589"><title>csp_31_029_2_S25</title></circle><path d="M7.499399432609231e-16,-12.24744871391589A12.24744871391589,12.24744871391589 0 0,1 7.499399432609231e-16,-12.24744871391589L0,0Z" style="fill: rgb(255, 255, 255); stroke-width: 0px; stroke: none;"></path><path d="M7.499399432609231e-16,-12.24744871391589A12.24744871391589,12.24744871391589 0 0,1 10.606601717798213,6.123724356957943L0,0Z" style="fill: rgb(204, 8, 20); stroke-width: 0px; stroke: none;"></path><path d="M10.606601717798213,6.123724356957943A12.24744871391589,12.24744871391589 0 1,1 -2.2498198297827694e-15,-12.24744871391589L0,0Z" style="fill: rgb(61, 133, 198); stroke-width: 0px; stroke: none;"></path></g><g class="node" id="csp_55_027_2_S23" style="stroke-width: 2px; stroke: rgb(0, 0, 0); fill: white;" x="1003.9668497384189" y="739.9538862986667" transform="translate(1003.9668497384189,739.9538862986667)"><circle r="11.180339887498949"><title>csp_55_027_2_S23</title></circle><path d="M6.845983728302534e-16,-11.180339887498949A11.180339887498949,11.180339887498949 0 0,1 6.845983728302534e-16,-11.180339887498949L0,0Z" style="fill: rgb(255, 255, 255); stroke-width: 0px; stroke: none;"></path><path d="M6.845983728302534e-16,-11.180339887498949A11.180339887498949,11.180339887498949 0 1,1 -10.6331351044005,-3.4549150281252614L0,0Z" style="fill: rgb(204, 8, 20); stroke-width: 0px; stroke: none;"></path><path d="M-10.6331351044005,-3.4549150281252614A11.180339887498949,11.180339887498949 0 0,1 -2.05379511849076e-15,-11.180339887498949L0,0Z" style="fill: rgb(107, 171, 48); stroke-width: 0px; stroke: none;"></path></g><g class="node" id="csp_46_021_2_S15" style="stroke-width: 2px; stroke: rgb(0, 0, 0); fill: white;" x="623.8099206283142" y="772.1520996617" transform="translate(623.8099206283142,772.1520996617)"><circle r="10"><title>csp_46_021_2_S15</title></circle><path d="M6.123233995736766e-16,-10A10,10 0 0,1 6.123233995736766e-16,-10L0,0Z" style="fill: rgb(255, 255, 255); stroke-width: 0px; stroke: none;"></path><path d="M0,10A10,10 0 1,1 0,-10A10,10 0 1,1 0,10Z" style="fill: rgb(107, 171, 48); stroke-width: 0px; stroke: none;"></path></g><g class="node" id="csp_94_029_2_S25" style="stroke-width: 2px; stroke: rgb(0, 0, 0); fill: white;" x="915.8684526277694" y="387.08446730925755" transform="translate(915.8684526277694,387.08446730925755)"><circle r="10" style="stroke: rgb(0, 0, 0); stroke-width: 2px;"><title>csp_94_029_2_S25</title></circle><path d="M6.123233995736766e-16,-10A10,10 0 0,1 6.123233995736766e-16,-10L0,0Z" style="fill: rgb(255, 255, 255); stroke-width: 0px; stroke: none;"></path><path d="M6.123233995736766e-16,-10A10,10 0 0,1 6.123233995736766e-16,10L0,0Z" style="fill: rgb(204, 8, 20); stroke-width: 0px; stroke: none;"></path><path d="M6.123233995736766e-16,10A10,10 0 0,1 -10,1.2246467991473533e-15L0,0Z" style="fill: rgb(107, 171, 48); stroke-width: 0px; stroke: none;"></path><path d="M-10,1.2246467991473533e-15A10,10 0 0,1 -1.8369701987210296e-15,-10L0,0Z" style="fill: rgb(61, 133, 198); stroke-width: 0px; stroke: none;"></path></g><g class="node" id="csp_27_021_2_S15" style="stroke-width: 2px; stroke: rgb(0, 0, 0); fill: white;" x="877.5722514840119" y="676.2483598113399" transform="translate(877.5722514840119,676.2483598113399)"><title>csp_27_021_2_S15</title><circle r="10" style="stroke: rgb(0, 0, 0); stroke-width: 2px;"></circle><path d="M6.123233995736766e-16,-10A10,10 0 0,1 6.123233995736766e-16,-10L0,0Z" style="fill: rgb(255, 255, 255); stroke-width: 0px; stroke: none;"></path><path d="M6.123233995736766e-16,-10A10,10 0 0,1 6.123233995736766e-16,10L0,0Z" style="fill: rgb(107, 171, 48); stroke-width: 0px; stroke: none;"></path><path d="M6.123233995736766e-16,10A10,10 0 0,1 -1.8369701987210296e-15,-10L0,0Z" style="fill: rgb(61, 133, 198); stroke-width: 0px; stroke: none;"></path></g><g class="node" id="csp_10_cc014_2_S21" style="stroke-width: 2px; stroke: rgb(0, 0, 0); fill: white;" x="924.7607112997393" y="685.6864388610751" transform="translate(924.7607112997393,685.6864388610751)"><circle r="10" style="stroke: rgb(0, 0, 0); stroke-width: 2px;"><title>csp_10_cc014_2_S21</title></circle><path d="M6.123233995736766e-16,-10A10,10 0 0,1 6.123233995736766e-16,-10L0,0Z" style="fill: rgb(255, 255, 255); stroke-width: 0px; stroke: none;"></path><path d="M6.123233995736766e-16,-10A10,10 0 0,1 10,0L0,0Z" style="fill: rgb(107, 171, 48); stroke-width: 0px; stroke: none;"></path><path d="M10,0A10,10 0 1,1 -1.8369701987210296e-15,-10L0,0Z" style="fill: rgb(61, 133, 198); stroke-width: 0px; stroke: none;"></path></g><g class="node" id="csp_117_82281_2_S2" style="stroke-width: 2px; stroke: rgb(0, 0, 0); fill: white;" x="1389.7487527922426" y="346.6734211748499" transform="translate(1389.7487527922426,346.6734211748499)"><circle r="10"><title>csp_117_82281_2_S2</title></circle><path d="M6.123233995736766e-16,-10A10,10 0 0,1 6.123233995736766e-16,-10L0,0Z" style="fill: rgb(255, 255, 255); stroke-width: 0px; stroke: none;"></path><path d="M6.123233995736766e-16,-10A10,10 0 0,1 6.123233995736766e-16,10L0,0Z" style="fill: rgb(204, 8, 20); stroke-width: 0px; stroke: none;"></path><path d="M6.123233995736766e-16,10A10,10 0 0,1 -1.8369701987210296e-15,-10L0,0Z" style="fill: rgb(107, 171, 48); stroke-width: 0px; stroke: none;"></path></g><g class="node" id="csp_99_025_2_S21" style="stroke-width: 2px; stroke: rgb(0, 0, 0); fill: white;" x="733.3130049357933" y="467.87721536897806" transform="translate(733.3130049357933,467.87721536897806)"><circle r="8.660254037844387" style="stroke: rgb(0, 0, 0); stroke-width: 2px;"><title>csp_99_025_2_S21</title></circle><path d="M5.302876193624535e-16,-8.660254037844387A8.660254037844387,8.660254037844387 0 0,1 5.302876193624535e-16,-8.660254037844387L0,0Z" style="fill: rgb(255, 255, 255); stroke-width: 0px; stroke: none;"></path><path d="M5.302876193624535e-16,-8.660254037844387A8.660254037844387,8.660254037844387 0 0,1 7.500000000000001,4.330127018922192L0,0Z" style="fill: rgb(204, 8, 20); stroke-width: 0px; stroke: none;"></path><path d="M7.500000000000001,4.330127018922192A8.660254037844387,8.660254037844387 0 1,1 -1.5908628580873604e-15,-8.660254037844387L0,0Z" style="fill: rgb(61, 133, 198); stroke-width: 0px; stroke: none;"></path></g><g class="node" id="csp_39_021_2_S15" style="stroke-width: 2px; stroke: rgb(0, 0, 0); fill: white;" x="1074.78211579325" y="694.3694991440105" transform="translate(1074.78211579325,694.3694991440105)"><circle r="8.660254037844387"><title>csp_39_021_2_S15</title></circle><path d="M5.302876193624535e-16,-8.660254037844387A8.660254037844387,8.660254037844387 0 0,1 5.302876193624535e-16,-8.660254037844387L0,0Z" style="fill: rgb(255, 255, 255); stroke-width: 0px; stroke: none;"></path><path d="M0,8.660254037844387A8.660254037844387,8.660254037844387 0 1,1 0,-8.660254037844387A8.660254037844387,8.660254037844387 0 1,1 0,8.660254037844387Z" style="fill: rgb(107, 171, 48); stroke-width: 0px; stroke: none;"></path></g><g class="node" id="csp_7_cc014_2_S21" style="stroke-width: 2px; stroke: rgb(0, 0, 0); fill: white;" x="1014.9835702976369" y="525.0604307795842" transform="translate(1014.9835702976369,525.0604307795842)"><circle r="8.660254037844387" style="stroke: rgb(0, 0, 0); stroke-width: 2px;"><title>csp_7_cc014_2_S21</title></circle><path d="M5.302876193624535e-16,-8.660254037844387A8.660254037844387,8.660254037844387 0 0,1 5.302876193624535e-16,-8.660254037844387L0,0Z" style="fill: rgb(255, 255, 255); stroke-width: 0px; stroke: none;"></path><path d="M5.302876193624535e-16,-8.660254037844387A8.660254037844387,8.660254037844387 0 0,1 7.500000000000001,4.330127018922192L0,0Z" style="fill: rgb(107, 171, 48); stroke-width: 0px; stroke: none;"></path><path d="M7.500000000000001,4.330127018922192A8.660254037844387,8.660254037844387 0 1,1 -1.5908628580873604e-15,-8.660254037844387L0,0Z" style="fill: rgb(61, 133, 198); stroke-width: 0px; stroke: none;"></path></g><g class="node" id="csp_53_019_2_S13" style="stroke-width: 2px; stroke: rgb(0, 0, 0); fill: white;" x="943.5556292817483" y="1014.2626506846207" transform="translate(943.5556292817483,1014.2626506846207)"><circle r="8.660254037844387"><title>csp_53_019_2_S13</title></circle><path d="M5.302876193624535e-16,-8.660254037844387A8.660254037844387,8.660254037844387 0 0,1 5.302876193624535e-16,-8.660254037844387L0,0Z" style="fill: rgb(255, 255, 255); stroke-width: 0px; stroke: none;"></path><path d="M5.302876193624535e-16,-8.660254037844387A8.660254037844387,8.660254037844387 0 0,1 7.500000000000001,4.330127018922192L0,0Z" style="fill: rgb(107, 171, 48); stroke-width: 0px; stroke: none;"></path><path d="M7.500000000000001,4.330127018922192A8.660254037844387,8.660254037844387 0 1,1 -1.5908628580873604e-15,-8.660254037844387L0,0Z" style="fill: rgb(204, 8, 20); stroke-width: 0px; stroke: none;"></path></g><g class="node" id="csp_19_029_2_S25" style="stroke-width: 2px; stroke: rgb(0, 0, 0); fill: white;" x="935.1469377648575" y="965.8097342736207" transform="translate(935.1469377648575,965.8097342736207)"><circle r="8.660254037844387" style="stroke: rgb(0, 0, 0); stroke-width: 2px;"><title>csp_19_029_2_S25</title></circle><path d="M5.302876193624535e-16,-8.660254037844387A8.660254037844387,8.660254037844387 0 0,1 5.302876193624535e-16,-8.660254037844387L0,0Z" style="fill: rgb(255, 255, 255); stroke-width: 0px; stroke: none;"></path><path d="M5.302876193624535e-16,-8.660254037844387A8.660254037844387,8.660254037844387 0 0,1 7.500000000000001,4.330127018922192L0,0Z" style="fill: rgb(204, 8, 20); stroke-width: 0px; stroke: none;"></path><path d="M7.500000000000001,4.330127018922192A8.660254037844387,8.660254037844387 0 1,1 -1.5908628580873604e-15,-8.660254037844387L0,0Z" style="fill: rgb(61, 133, 198); stroke-width: 0px; stroke: none;"></path></g><g class="node" id="csp_111_Abass_2_S3" style="stroke-width: 2px; stroke: rgb(0, 0, 0); fill: white;" x="1342.4551949320426" y="329.9176834543281" transform="translate(1342.4551949320426,329.9176834543281)"><circle r="8.660254037844387"><title>csp_111_Abass_2_S3</title></circle><path d="M5.302876193624535e-16,-8.660254037844387A8.660254037844387,8.660254037844387 0 0,1 5.302876193624535e-16,-8.660254037844387L0,0Z" style="fill: rgb(255, 255, 255); stroke-width: 0px; stroke: none;"></path><path d="M5.302876193624535e-16,-8.660254037844387A8.660254037844387,8.660254037844387 0 0,1 7.500000000000001,4.330127018922192L0,0Z" style="fill: rgb(204, 8, 20); stroke-width: 0px; stroke: none;"></path><path d="M7.500000000000001,4.330127018922192A8.660254037844387,8.660254037844387 0 1,1 -1.5908628580873604e-15,-8.660254037844387L0,0Z" style="fill: rgb(61, 133, 198); stroke-width: 0px; stroke: none;"></path></g><g class="node" id="csp_3D7" style="stroke-width: 2px; stroke: rgb(0, 0, 0); fill: white;" x="1479.1882532629936" y="691.538202835182" transform="translate(1479.1882532629936,691.538202835182)"><circle r="5"><title>csp_3D7</title></circle><path d="M3.061616997868383e-16,-5A5,5 0 0,1 3.061616997868383e-16,-5L0,0Z" style="fill: rgb(255, 255, 255); stroke-width: 0px; stroke: none;"></path><path d="M0,5A5,5 0 1,1 0,-5A5,5 0 1,1 0,5Z" style="fill: rgb(161, 79, 157); stroke-width: 0px; stroke: none;"></path></g><g class="node" id="In25" style="stroke-width: 2px; stroke: rgb(0, 0, 0); fill: white;" x="662.0427364488277" y="781.0546943153091" transform="translate(662.0427364488277,781.0546943153091)"><circle r="2"><title>In25</title></circle><path d="M0,2A2,2 0 1,1 0,-2A2,2 0 1,1 0,2Z" style="fill: rgb(255, 255, 255); stroke-width: 0px; stroke: none;"></path></g><g class="node" id="In47" style="stroke-width: 2px; stroke: rgb(0, 0, 0); fill: white;" x="792.3242002595514" y="783.6682878164837" transform="translate(792.3242002595514,783.6682878164837)"><circle r="2"><title>In47</title></circle><path d="M0,2A2,2 0 1,1 0,-2A2,2 0 1,1 0,2Z" style="fill: rgb(255, 255, 255); stroke-width: 0px; stroke: none;"></path></g><g class="node" id="In48" style="stroke-width: 2px; stroke: rgb(0, 0, 0); fill: white;" x="844.6593859537682" y="786.4258721278932" transform="translate(844.6593859537682,786.4258721278932)"><circle r="2"><title>In48</title></circle><path d="M0,2A2,2 0 1,1 0,-2A2,2 0 1,1 0,2Z" style="fill: rgb(255, 255, 255); stroke-width: 0px; stroke: none;"></path></g><g class="node" id="In49" style="stroke-width: 2px; stroke: rgb(0, 0, 0); fill: white;" x="907.0296545709722" y="788.6320130127051" transform="translate(907.0296545709722,788.6320130127051)"><circle r="2"><title>In49</title></circle><path d="M0,2A2,2 0 1,1 0,-2A2,2 0 1,1 0,2Z" style="fill: rgb(255, 255, 255); stroke-width: 0px; stroke: none;"></path></g><g class="node" id="In41" style="stroke-width: 2px; stroke: rgb(0, 0, 0); fill: white;" x="1153.7164065366687" y="361.2953269932065" transform="translate(1153.7164065366687,361.2953269932065)"><circle r="2"><title>In41</title></circle><path d="M0,2A2,2 0 1,1 0,-2A2,2 0 1,1 0,2Z" style="fill: rgb(255, 255, 255); stroke-width: 0px; stroke: none;"></path></g><g class="node" id="In44" style="stroke-width: 2px; stroke: rgb(0, 0, 0); fill: white;" x="1039.2655689842384" y="389.20901471050354" transform="translate(1039.2655689842384,389.20901471050354)"><circle r="2"><title>In44</title></circle><path d="M0,2A2,2 0 1,1 0,-2A2,2 0 1,1 0,2Z" style="fill: rgb(255, 255, 255); stroke-width: 0px; stroke: none;"></path></g><g class="node" id="In45" style="stroke-width: 2px; stroke: rgb(0, 0, 0); fill: white;" x="1071.910532056002" y="483.81055307597245" transform="translate(1071.910532056002,483.81055307597245)"><circle r="2"><title>In45</title></circle><path d="M0,2A2,2 0 1,1 0,-2A2,2 0 1,1 0,2Z" style="fill: rgb(255, 255, 255); stroke-width: 0px; stroke: none;"></path></g><g class="node" id="In42" style="stroke-width: 2px; stroke: rgb(0, 0, 0); fill: white;" x="860.8850897829163" y="890.802703053535" transform="translate(860.8850897829163,890.802703053535)"><circle r="2"><title>In42</title></circle><path d="M0,2A2,2 0 1,1 0,-2A2,2 0 1,1 0,2Z" style="fill: rgb(255, 255, 255); stroke-width: 0px; stroke: none;"></path></g><g class="node" id="In43" style="stroke-width: 2px; stroke: rgb(0, 0, 0); fill: white;" x="890.7534258951895" y="876.3261983611324" transform="translate(890.7534258951895,876.3261983611324)"><circle r="2"><title>In43</title></circle><path d="M0,2A2,2 0 1,1 0,-2A2,2 0 1,1 0,2Z" style="fill: rgb(255, 255, 255); stroke-width: 0px; stroke: none;"></path></g><g class="node" id="In39" style="stroke-width: 2px; stroke: rgb(0, 0, 0); fill: white;" x="947.8682491056089" y="416.0092510246299" transform="translate(947.8682491056089,416.0092510246299)"><circle r="2"><title>In39</title></circle><path d="M0,2A2,2 0 1,1 0,-2A2,2 0 1,1 0,2Z" style="fill: rgb(255, 255, 255); stroke-width: 0px; stroke: none;"></path></g><g class="node" id="In35" style="stroke-width: 2px; stroke: rgb(0, 0, 0); fill: white;" x="725.5945625738098" y="319.9278571488932" transform="translate(725.5945625738098,319.9278571488932)"><circle r="2"><title>In35</title></circle><path d="M0,2A2,2 0 1,1 0,-2A2,2 0 1,1 0,2Z" style="fill: rgb(255, 255, 255); stroke-width: 0px; stroke: none;"></path></g><g class="node" id="In36" style="stroke-width: 2px; stroke: rgb(0, 0, 0); fill: white;" x="718.9789153548262" y="346.2375650001675" transform="translate(718.9789153548262,346.2375650001675)"><circle r="2"><title>In36</title></circle><path d="M0,2A2,2 0 1,1 0,-2A2,2 0 1,1 0,2Z" style="fill: rgb(255, 255, 255); stroke-width: 0px; stroke: none;"></path></g><g class="node" id="In37" style="stroke-width: 2px; stroke: rgb(0, 0, 0); fill: white;" x="718.5638127747051" y="377.1572185119783" transform="translate(718.5638127747051,377.1572185119783)"><circle r="2"><title>In37</title></circle><path d="M0,2A2,2 0 1,1 0,-2A2,2 0 1,1 0,2Z" style="fill: rgb(255, 255, 255); stroke-width: 0px; stroke: none;"></path></g><g class="node" id="In38" style="stroke-width: 2px; stroke: rgb(0, 0, 0); fill: white;" x="722.3774119829418" y="414.18642082920127" transform="translate(722.3774119829418,414.18642082920127)"><circle r="2"><title>In38</title></circle><path d="M0,2A2,2 0 1,1 0,-2A2,2 0 1,1 0,2Z" style="fill: rgb(255, 255, 255); stroke-width: 0px; stroke: none;"></path></g><g class="node" id="In27" style="stroke-width: 2px; stroke: rgb(0, 0, 0); fill: white;" x="640.8177976947098" y="573.1826022632591" transform="translate(640.8177976947098,573.1826022632591)"><circle r="2"><title>In27</title></circle><path d="M0,2A2,2 0 1,1 0,-2A2,2 0 1,1 0,2Z" style="fill: rgb(255, 255, 255); stroke-width: 0px; stroke: none;"></path></g><g class="node" id="In28" style="stroke-width: 2px; stroke: rgb(0, 0, 0); fill: white;" x="657.9064140985229" y="552.7134447855373" transform="translate(657.9064140985229,552.7134447855373)"><circle r="2"><title>In28</title></circle><path d="M0,2A2,2 0 1,1 0,-2A2,2 0 1,1 0,2Z" style="fill: rgb(255, 255, 255); stroke-width: 0px; stroke: none;"></path></g><g class="node" id="In29" style="stroke-width: 2px; stroke: rgb(0, 0, 0); fill: white;" x="680.2514976405067" y="535.8447409417225" transform="translate(680.2514976405067,535.8447409417225)"><circle r="2"><title>In29</title></circle><path d="M0,2A2,2 0 1,1 0,-2A2,2 0 1,1 0,2Z" style="fill: rgb(255, 255, 255); stroke-width: 0px; stroke: none;"></path></g><g class="node" id="In30" style="stroke-width: 2px; stroke: rgb(0, 0, 0); fill: white;" x="712.4410734850063" y="527.3543932728774" transform="translate(712.4410734850063,527.3543932728774)"><circle r="2"><title>In30</title></circle><path d="M0,2A2,2 0 1,1 0,-2A2,2 0 1,1 0,2Z" style="fill: rgb(255, 255, 255); stroke-width: 0px; stroke: none;"></path></g><g class="node" id="In31" style="stroke-width: 2px; stroke: rgb(0, 0, 0); fill: white;" x="748.8849123163089" y="523.0845305742986" transform="translate(748.8849123163089,523.0845305742986)"><circle r="2"><title>In31</title></circle><path d="M0,2A2,2 0 1,1 0,-2A2,2 0 1,1 0,2Z" style="fill: rgb(255, 255, 255); stroke-width: 0px; stroke: none;"></path></g><g class="node" id="In33" style="stroke-width: 2px; stroke: rgb(0, 0, 0); fill: white;" x="794.1411538896963" y="566.8304926181947" transform="translate(794.1411538896963,566.8304926181947)"><circle r="2"><title>In33</title></circle><path d="M0,2A2,2 0 1,1 0,-2A2,2 0 1,1 0,2Z" style="fill: rgb(255, 255, 255); stroke-width: 0px; stroke: none;"></path></g><g class="node" id="In34" style="stroke-width: 2px; stroke: rgb(0, 0, 0); fill: white;" x="854.970472994707" y="623.5082889539993" transform="translate(854.970472994707,623.5082889539993)"><circle r="2"><title>In34</title></circle><path d="M0,2A2,2 0 1,1 0,-2A2,2 0 1,1 0,2Z" style="fill: rgb(255, 255, 255); stroke-width: 0px; stroke: none;"></path></g><g class="node" id="In24" style="stroke-width: 2px; stroke: rgb(0, 0, 0); fill: white;" x="1116.9648491974624" y="710.6108551285199" transform="translate(1116.9648491974624,710.6108551285199)"><circle r="2"><title>In24</title></circle><path d="M0,2A2,2 0 1,1 0,-2A2,2 0 1,1 0,2Z" style="fill: rgb(255, 255, 255); stroke-width: 0px; stroke: none;"></path></g><g class="node" id="In32" style="stroke-width: 2px; stroke: rgb(0, 0, 0); fill: white;" x="1024.437275835775" y="681.5912415557408" transform="translate(1024.437275835775,681.5912415557408)"><circle r="2"><title>In32</title></circle><path d="M0,2A2,2 0 1,1 0,-2A2,2 0 1,1 0,2Z" style="fill: rgb(255, 255, 255); stroke-width: 0px; stroke: none;"></path></g><g class="node" id="In26" style="stroke-width: 2px; stroke: rgb(0, 0, 0); fill: white;" x="969.1285347377502" y="885.5633738471155" transform="translate(969.1285347377502,885.5633738471155)"><circle r="2"><title>In26</title></circle><path d="M0,2A2,2 0 1,1 0,-2A2,2 0 1,1 0,2Z" style="fill: rgb(255, 255, 255); stroke-width: 0px; stroke: none;"></path></g><g class="node" id="In0" style="stroke-width: 2px; stroke: rgb(0, 0, 0); fill: white;" x="1474.476083378975" y="718.4910954407746" transform="translate(1474.476083378975,718.4910954407746)"><circle r="2"><title>In0</title></circle><path d="M0,2A2,2 0 1,1 0,-2A2,2 0 1,1 0,2Z" style="fill: rgb(255, 255, 255); stroke-width: 0px; stroke: none;"></path></g><g class="node" id="In1" style="stroke-width: 2px; stroke: rgb(0, 0, 0); fill: white;" x="1455.2370554027723" y="730.4609395806367" transform="translate(1455.2370554027723,730.4609395806367)"><circle r="2"><title>In1</title></circle><path d="M0,2A2,2 0 1,1 0,-2A2,2 0 1,1 0,2Z" style="fill: rgb(255, 255, 255); stroke-width: 0px; stroke: none;"></path></g><g class="node" id="In2" style="stroke-width: 2px; stroke: rgb(0, 0, 0); fill: white;" x="1436.0485913700493" y="742.9258181889506" transform="translate(1436.0485913700493,742.9258181889506)"><circle r="2"><title>In2</title></circle><path d="M0,2A2,2 0 1,1 0,-2A2,2 0 1,1 0,2Z" style="fill: rgb(255, 255, 255); stroke-width: 0px; stroke: none;"></path></g><g class="node" id="In3" style="stroke-width: 2px; stroke: rgb(0, 0, 0); fill: white;" x="1421.0125760423405" y="760.1772154082815" transform="translate(1421.0125760423405,760.1772154082815)"><circle r="2"><title>In3</title></circle><path d="M0,2A2,2 0 1,1 0,-2A2,2 0 1,1 0,2Z" style="fill: rgb(255, 255, 255); stroke-width: 0px; stroke: none;"></path></g><g class="node" id="In4" style="stroke-width: 2px; stroke: rgb(0, 0, 0); fill: white;" x="1407.44059354917" y="779.6726558137581" transform="translate(1407.44059354917,779.6726558137581)"><circle r="2" style="stroke: rgb(0, 0, 0); stroke-width: 2px;"><title>In4</title></circle><path d="M0,2A2,2 0 1,1 0,-2A2,2 0 1,1 0,2Z" style="fill: rgb(255, 255, 255); stroke-width: 0px; stroke: none;"></path></g><g class="node" id="In5" style="stroke-width: 2px; stroke: rgb(0, 0, 0); fill: white;" x="1396.9399346727462" y="801.9702794369741" transform="translate(1396.9399346727462,801.9702794369741)"><circle r="2"><title>In5</title></circle><path d="M0,2A2,2 0 1,1 0,-2A2,2 0 1,1 0,2Z" style="fill: rgb(255, 255, 255); stroke-width: 0px; stroke: none;"></path></g><g class="node" id="In6" style="stroke-width: 2px; stroke: rgb(0, 0, 0); fill: white;" x="1388.7819930696799" y="825.6162177255179" transform="translate(1388.7819930696799,825.6162177255179)"><circle r="2"><title>In6</title></circle><path d="M0,2A2,2 0 1,1 0,-2A2,2 0 1,1 0,2Z" style="fill: rgb(255, 255, 255); stroke-width: 0px; stroke: none;"></path></g><g class="node" id="In7" style="stroke-width: 2px; stroke: rgb(0, 0, 0); fill: white;" x="1380.9161159398002" y="849.6119693562413" transform="translate(1380.9161159398002,849.6119693562413)"><circle r="2"><title>In7</title></circle><path d="M0,2A2,2 0 1,1 0,-2A2,2 0 1,1 0,2Z" style="fill: rgb(255, 255, 255); stroke-width: 0px; stroke: none;"></path></g><g class="node" id="In8" style="stroke-width: 2px; stroke: rgb(0, 0, 0); fill: white;" x="1371.8008600042122" y="873.4644315452605" transform="translate(1371.8008600042122,873.4644315452605)"><circle r="2"><title>In8</title></circle><path d="M0,2A2,2 0 1,1 0,-2A2,2 0 1,1 0,2Z" style="fill: rgb(255, 255, 255); stroke-width: 0px; stroke: none;"></path></g><g class="node" id="In9" style="stroke-width: 2px; stroke: rgb(0, 0, 0); fill: white;" x="1360.5021494903694" y="896.9998958788697" transform="translate(1360.5021494903694,896.9998958788697)"><circle r="2"><title>In9</title></circle><path d="M0,2A2,2 0 1,1 0,-2A2,2 0 1,1 0,2Z" style="fill: rgb(255, 255, 255); stroke-width: 0px; stroke: none;"></path></g><g class="node" id="In10" style="stroke-width: 2px; stroke: rgb(0, 0, 0); fill: white;" x="1346.3555862478313" y="919.7244356248777" transform="translate(1346.3555862478313,919.7244356248777)"><circle r="2"><title>In10</title></circle><path d="M0,2A2,2 0 1,1 0,-2A2,2 0 1,1 0,2Z" style="fill: rgb(255, 255, 255); stroke-width: 0px; stroke: none;"></path></g><g class="node" id="In11" style="stroke-width: 2px; stroke: rgb(0, 0, 0); fill: white;" x="1329.3607296175794" y="941.1915959104183" transform="translate(1329.3607296175794,941.1915959104183)"><circle r="2"><title>In11</title></circle><path d="M0,2A2,2 0 1,1 0,-2A2,2 0 1,1 0,2Z" style="fill: rgb(255, 255, 255); stroke-width: 0px; stroke: none;"></path></g><g class="node" id="In12" style="stroke-width: 2px; stroke: rgb(0, 0, 0); fill: white;" x="1309.9127879566365" y="960.5289109852758" transform="translate(1309.9127879566365,960.5289109852758)"><circle r="2"><title>In12</title></circle><path d="M0,2A2,2 0 1,1 0,-2A2,2 0 1,1 0,2Z" style="fill: rgb(255, 255, 255); stroke-width: 0px; stroke: none;"></path></g><g class="node" id="In13" style="stroke-width: 2px; stroke: rgb(0, 0, 0); fill: white;" x="1287.5441353331319" y="977.3694239057714" transform="translate(1287.5441353331319,977.3694239057714)"><circle r="2"><title>In13</title></circle><path d="M0,2A2,2 0 1,1 0,-2A2,2 0 1,1 0,2Z" style="fill: rgb(255, 255, 255); stroke-width: 0px; stroke: none;"></path></g><g class="node" id="In14" style="stroke-width: 2px; stroke: rgb(0, 0, 0); fill: white;" x="1262.1626073962723" y="988.9450667493119" transform="translate(1262.1626073962723,988.9450667493119)"><circle r="2"><title>In14</title></circle><path d="M0,2A2,2 0 1,1 0,-2A2,2 0 1,1 0,2Z" style="fill: rgb(255, 255, 255); stroke-width: 0px; stroke: none;"></path></g><g class="node" id="In15" style="stroke-width: 2px; stroke: rgb(0, 0, 0); fill: white;" x="1233.9515143571875" y="990.6041509671153" transform="translate(1233.9515143571875,990.6041509671153)"><circle r="2"><title>In15</title></circle><path d="M0,2A2,2 0 1,1 0,-2A2,2 0 1,1 0,2Z" style="fill: rgb(255, 255, 255); stroke-width: 0px; stroke: none;"></path></g><g class="node" id="In16" style="stroke-width: 2px; stroke: rgb(0, 0, 0); fill: white;" x="1207.1236353850484" y="979.355148257565" transform="translate(1207.1236353850484,979.355148257565)"><circle r="2"><title>In16</title></circle><path d="M0,2A2,2 0 1,1 0,-2A2,2 0 1,1 0,2Z" style="fill: rgb(255, 255, 255); stroke-width: 0px; stroke: none;"></path></g><g class="node" id="In17" style="stroke-width: 2px; stroke: rgb(0, 0, 0); fill: white;" x="1181.9083887540082" y="958.8369994816776" transform="translate(1181.9083887540082,958.8369994816776)"><circle r="2"><title>In17</title></circle><path d="M0,2A2,2 0 1,1 0,-2A2,2 0 1,1 0,2Z" style="fill: rgb(255, 255, 255); stroke-width: 0px; stroke: none;"></path></g><g class="node" id="In18" style="stroke-width: 2px; stroke: rgb(0, 0, 0); fill: white;" x="1154.1130719362393" y="932.7509965813888" transform="translate(1154.1130719362393,932.7509965813888)"><circle r="2"><title>In18</title></circle><path d="M0,2A2,2 0 1,1 0,-2A2,2 0 1,1 0,2Z" style="fill: rgb(255, 255, 255); stroke-width: 0px; stroke: none;"></path></g><g class="node" id="In19" style="stroke-width: 2px; stroke: rgb(0, 0, 0); fill: white;" x="1117.9758123936665" y="899.9968068664546" transform="translate(1117.9758123936665,899.9968068664546)"><circle r="2"><title>In19</title></circle><path d="M0,2A2,2 0 1,1 0,-2A2,2 0 1,1 0,2Z" style="fill: rgb(255, 255, 255); stroke-width: 0px; stroke: none;"></path></g><g class="node" id="In20" style="stroke-width: 2px; stroke: rgb(0, 0, 0); fill: white;" x="1066.6838985949746" y="857.7260675607354" transform="translate(1066.6838985949746,857.7260675607354)"><circle r="2"><title>In20</title></circle><path d="M0,2A2,2 0 1,1 0,-2A2,2 0 1,1 0,2Z" style="fill: rgb(255, 255, 255); stroke-width: 0px; stroke: none;"></path></g><g class="node" id="In21" style="stroke-width: 2px; stroke: rgb(0, 0, 0); fill: white;" x="1003.4224369545593" y="813.6104218254774" transform="translate(1003.4224369545593,813.6104218254774)"><circle r="2"><title>In21</title></circle><path d="M0,2A2,2 0 1,1 0,-2A2,2 0 1,1 0,2Z" style="fill: rgb(255, 255, 255); stroke-width: 0px; stroke: none;"></path></g><g class="node" id="In22" style="stroke-width: 2px; stroke: rgb(0, 0, 0); fill: white;" x="971.7937260999985" y="789.5573085956966" transform="translate(971.7937260999985,789.5573085956966)"><circle r="2"><title>In22</title></circle><path d="M0,2A2,2 0 1,1 0,-2A2,2 0 1,1 0,2Z" style="fill: rgb(255, 255, 255); stroke-width: 0px; stroke: none;"></path></g><g class="node" id="In23" style="stroke-width: 2px; stroke: rgb(0, 0, 0); fill: white;" x="950.2946654801325" y="780.5229440599828" transform="translate(950.2946654801325,780.5229440599828)"><circle r="2"><title>In23</title></circle><path d="M0,2A2,2 0 1,1 0,-2A2,2 0 1,1 0,2Z" style="fill: rgb(255, 255, 255); stroke-width: 0px; stroke: none;"></path></g><g class="node" id="In40" style="stroke-width: 2px; stroke: rgb(0, 0, 0); fill: white;" x="931.8851794809503" y="914.0908081723717" transform="translate(931.8851794809503,914.0908081723717)"><circle r="2"><title>In40</title></circle><path d="M0,2A2,2 0 1,1 0,-2A2,2 0 1,1 0,2Z" style="fill: rgb(255, 255, 255); stroke-width: 0px; stroke: none;"></path></g><g class="node" id="In46" style="stroke-width: 2px; stroke: rgb(0, 0, 0); fill: white;" x="1293.052813331729" y="329.20387156155476" transform="translate(1293.052813331729,329.20387156155476)"><circle r="2"><title>In46</title></circle><path d="M0,2A2,2 0 1,1 0,-2A2,2 0 1,1 0,2Z" style="fill: rgb(255, 255, 255); stroke-width: 0px; stroke: none;"></path></g></g><g transform="translate(50,140)" class="legend"><g class="mutLegendGroup" transform="translate(1244,385)"><rect class="mutLegendBG" fill="white" stroke="black" stroke-width="1px" x="-11" y="-28" width="110" height="125"></rect><g class="mutLegendGroupText"><g class="legendCells" transform="translate(0,0)"><rect class="breakRect" height="18" width="25" style="fill: rgb(161, 79, 157); stroke: rgb(0, 0, 0);"></rect><text class="breakLabels" style="pointer-events: none; display: block; text-anchor: start;" x="30" y="14">Reference</text></g><g class="legendCells" transform="translate(0,23)"><rect class="breakRect" height="18" width="25" style="fill: rgb(204, 8, 20); stroke: rgb(0, 0, 0);"></rect><text class="breakLabels" style="pointer-events: none; display: block; text-anchor: start;" x="30" y="14">North</text></g><g class="legendCells" transform="translate(0,46)"><rect class="breakRect" height="18" width="25" style="fill: rgb(61, 133, 198); stroke: rgb(0, 0, 0);"></rect><text class="breakLabels" style="pointer-events: none; display: block; text-anchor: start;" x="30" y="14">Central</text></g><g class="legendCells" transform="translate(0,69)"><rect class="breakRect" height="18" width="25" style="fill: rgb(107, 171, 48); stroke: rgb(0, 0, 0);"></rect><text class="breakLabels" style="pointer-events: none; display: block; text-anchor: start;" x="30" y="14">South</text></g><text y="-7" class="legendTitle">Groups</text></g></g></g></svg>